<?xml version="1.0" encoding="UTF-8"?>
<!DOCTYPE svg PUBLIC "-//W3C//DTD SVG 1.1//EN" "http://www.w3.org/Graphics/SVG/1.1/DTD/svg11.dtd">
<svg xmlns="http://www.w3.org/2000/svg" version="1.1" width="636px" height="392px" style="shape-rendering:geometricPrecision; text-rendering:geometricPrecision; image-rendering:optimizeQuality; fill-rule:evenodd; clip-rule:evenodd" xmlns:xlink="http://www.w3.org/1999/xlink">
<g><path style="opacity:1" fill="#4275ea" d="M 344.5,33.5 C 348.126,35.4977 352.126,36.4977 356.5,36.5C 356.833,36.5 357.167,36.5 357.5,36.5C 357.611,37.1174 357.944,37.6174 358.5,38C 362.92,39.043 367.254,40.3764 371.5,42C 369.405,42.5556 369.238,43.0556 371,43.5C 372.44,42.8524 373.94,42.5191 375.5,42.5C 375.5,43.5 375.5,44.5 375.5,45.5C 378.167,45.5 380.833,45.5 383.5,45.5C 383.428,47.3109 382.595,48.6443 381,49.5C 379.234,48.7665 377.401,48.4332 375.5,48.5C 374.833,48.5 374.167,48.5 373.5,48.5C 321.176,29.8738 271.843,35.8738 225.5,66.5C 223.086,65.2233 222.919,63.5566 225,61.5C 228.579,59.4874 231.746,57.1541 234.5,54.5C 239.684,50.7396 245.35,47.7396 251.5,45.5C 253.857,45.6633 256.19,45.4966 258.5,45C 263.592,41.5768 269.258,39.9102 275.5,40C 274.833,39.6667 274.167,39.3333 273.5,39C 274.858,38.0656 276.192,37.2323 277.5,36.5C 299.506,31.1651 321.84,30.1651 344.5,33.5 Z"/></g>
<g><path style="opacity:0.655" fill="#7896da" d="M 344.5,33.5 C 348.736,34.0085 352.736,35.0085 356.5,36.5C 352.126,36.4977 348.126,35.4977 344.5,33.5 Z"/></g>
<g><path style="opacity:1" fill="#577fe0" d="M 277.5,36.5 C 276.192,37.2323 274.858,38.0656 273.5,39C 274.167,39.3333 274.833,39.6667 275.5,40C 269.258,39.9102 263.592,41.5768 258.5,45C 256.19,45.4966 253.857,45.6633 251.5,45.5C 259.671,41.3308 268.338,38.3308 277.5,36.5 Z"/></g>
<g><path style="opacity:1" fill="#5b80de" d="M 357.5,36.5 C 366.668,38.3328 375.335,41.3328 383.5,45.5C 380.833,45.5 378.167,45.5 375.5,45.5C 375.5,44.5 375.5,43.5 375.5,42.5C 373.94,42.5191 372.44,42.8524 371,43.5C 369.238,43.0556 369.405,42.5556 371.5,42C 367.254,40.3764 362.92,39.043 358.5,38C 357.944,37.6174 357.611,37.1174 357.5,36.5 Z"/></g>
<g><path style="opacity:1" fill="#e0eafc" d="M 455.5,119.5 C 466.45,137.943 472.783,157.943 474.5,179.5C 471.942,183.32 470.442,187.654 470,192.5C 469.781,187.485 469.781,182.485 470,177.5C 469.667,176.833 469.333,176.167 469,175.5C 468.906,181.278 468.239,186.944 467,192.5C 466.579,188.128 465.912,183.795 465,179.5C 463.059,188.847 461.892,198.181 461.5,207.5C 461.827,198.318 461.493,189.318 460.5,180.5C 459.539,168.331 456.872,156.665 452.5,145.5C 451.607,142.18 450.273,139.18 448.5,136.5C 446.663,131.013 443.997,126.013 440.5,121.5C 438.822,116.803 436.156,112.803 432.5,109.5C 430.118,104.752 426.784,100.752 422.5,97.5C 420.5,94.8333 418.167,92.5 415.5,90.5C 388.145,64.5308 355.312,51.5308 317,51.5C 289.434,51.7379 263.934,58.9046 240.5,73C 235.018,76.6545 230.018,80.8211 225.5,85.5C 211.99,95.3452 201.324,107.679 193.5,122.5C 189.08,129.409 185.413,136.742 182.5,144.5C 181.307,144.03 180.64,143.03 180.5,141.5C 183.745,132.343 188.079,123.676 193.5,115.5C 211.445,88.2498 235.779,68.5831 266.5,56.5C 316.816,40.1415 363.483,46.9749 406.5,77C 410.042,81.2609 414.376,84.2609 419.5,86C 424.165,88.5032 426.998,92.3366 428,97.5C 434.606,104.434 440.439,111.934 445.5,120C 448.92,119.785 452.254,119.619 455.5,119.5 Z"/></g>
<g><path style="opacity:1" fill="#b7d9fe" d="M 415.5,90.5 C 413.436,90.313 411.436,89.813 409.5,89C 410.888,88.1107 410.722,87.6107 409,87.5C 406.849,89.0439 404.682,89.3772 402.5,88.5C 394.924,90.4087 387.257,92.0754 379.5,93.5C 379.5,94.8333 379.5,96.1667 379.5,97.5C 372.803,97.1794 366.303,97.846 360,99.5C 357.621,99.3463 355.454,98.6797 353.5,97.5C 351.967,99.289 350.967,101.289 350.5,103.5C 340.222,92.929 329.222,91.929 317.5,100.5C 317.84,97.3236 319.506,95.1569 322.5,94C 322.167,93.6667 321.833,93.3333 321.5,93C 327.5,92.3333 333.5,91.6667 339.5,91C 338.5,90.1667 337.5,89.3333 336.5,88.5C 339.876,87.0747 340.043,85.7414 337,84.5C 334.52,85.1224 334.02,86.4557 335.5,88.5C 333.305,89.7691 331.139,89.7691 329,88.5C 326.43,89.009 324.097,90.009 322,91.5C 320.984,90.3659 320.317,90.6992 320,92.5C 319.626,91.5838 319.126,90.7504 318.5,90C 314.514,89.5012 310.514,89.3345 306.5,89.5C 306.5,88.5 306.5,87.5 306.5,86.5C 282.831,86.6666 259.164,86.5 235.5,86C 236.167,85.6667 236.833,85.3333 237.5,85C 236.167,84.3333 236.167,83.6667 237.5,83C 239.579,82.1923 241.579,82.359 243.5,83.5C 243.291,84.086 242.957,84.586 242.5,85C 263.831,85.5 285.164,85.6666 306.5,85.5C 306.5,84.5 306.5,83.5 306.5,82.5C 287.833,82.5 269.167,82.5 250.5,82.5C 250.5,80.5 250.5,78.5 250.5,76.5C 244.369,75.5898 239.035,77.0898 234.5,81C 231.499,80.9056 229.499,82.2389 228.5,85C 227.552,85.4828 226.552,85.6495 225.5,85.5C 230.018,80.8211 235.018,76.6545 240.5,73C 263.934,58.9046 289.434,51.7379 317,51.5C 355.312,51.5308 388.145,64.5308 415.5,90.5 Z"/></g>
<g><path style="opacity:1" fill="#d3e0fa" d="M 373.5,48.5 C 374.167,48.5 374.833,48.5 375.5,48.5C 410.33,62.9984 436.997,86.6651 455.5,119.5C 452.254,119.619 448.92,119.785 445.5,120C 440.439,111.934 434.606,104.434 428,97.5C 426.998,92.3366 424.165,88.5032 419.5,86C 414.376,84.2609 410.042,81.2609 406.5,77C 363.483,46.9749 316.816,40.1415 266.5,56.5C 266.856,55.1301 267.69,54.1301 269,53.5C 272.108,52.8068 275.108,51.8068 278,50.5C 278.772,50.6448 279.439,50.9781 280,51.5C 282.201,50.0041 284.701,49.0041 287.5,48.5C 293.977,47.9628 300.311,47.1295 306.5,46C 320.225,45.1019 333.725,46.2686 347,49.5C 348.913,47.8131 351.08,47.3131 353.5,48C 352.376,48.2492 351.376,48.7492 350.5,49.5C 351.167,49.8333 351.833,50.1667 352.5,50.5C 354.778,49.8154 356.112,48.8154 356.5,47.5C 358.767,48.3622 359.767,50.0289 359.5,52.5C 363.015,52.8789 366.348,53.8789 369.5,55.5C 370.795,54.9017 372.128,54.4017 373.5,54C 371.679,52.2567 369.679,50.7567 367.5,49.5C 369.396,48.5344 371.396,48.2011 373.5,48.5 Z"/></g>
<g><path style="opacity:1" fill="#cbdbfa" d="M 373.5,48.5 C 371.396,48.2011 369.396,48.5344 367.5,49.5C 369.679,50.7567 371.679,52.2567 373.5,54C 372.128,54.4017 370.795,54.9017 369.5,55.5C 366.348,53.8789 363.015,52.8789 359.5,52.5C 359.767,50.0289 358.767,48.3622 356.5,47.5C 356.112,48.8154 354.778,49.8154 352.5,50.5C 351.833,50.1667 351.167,49.8333 350.5,49.5C 351.376,48.7492 352.376,48.2492 353.5,48C 351.08,47.3131 348.913,47.8131 347,49.5C 333.725,46.2686 320.225,45.1019 306.5,46C 300.311,47.1295 293.977,47.9628 287.5,48.5C 284.701,49.0041 282.201,50.0041 280,51.5C 279.439,50.9781 278.772,50.6448 278,50.5C 275.108,51.8068 272.108,52.8068 269,53.5C 267.69,54.1301 266.856,55.1301 266.5,56.5C 235.779,68.5831 211.445,88.2498 193.5,115.5C 192.325,115.281 191.325,115.614 190.5,116.5C 189.26,119.393 187.926,122.227 186.5,125C 183.713,126.789 181.713,125.956 180.5,122.5C 179.2,125.295 177.7,127.961 176,130.5C 175.329,131.252 174.496,131.586 173.5,131.5C 180.077,115.927 189.077,101.927 200.5,89.5C 201.488,88.205 202.488,86.8717 203.5,85.5C 205.833,83.8333 207.833,81.8333 209.5,79.5C 215.24,75.635 220.573,71.3017 225.5,66.5C 271.843,35.8738 321.176,29.8738 373.5,48.5 Z"/></g>
<g><path style="opacity:1" fill="#4b7ae4" d="M 234.5,54.5 C 231.746,57.1541 228.579,59.4874 225,61.5C 222.919,63.5566 223.086,65.2233 225.5,66.5C 220.573,71.3017 215.24,75.635 209.5,79.5C 208.057,78.2973 206.391,77.7973 204.5,78C 203.405,80.1953 202.405,82.3619 201.5,84.5C 201.957,85.2975 202.624,85.6309 203.5,85.5C 202.488,86.8717 201.488,88.205 200.5,89.5C 201.234,85.56 199.901,84.2266 196.5,85.5C 206.845,72.3266 219.512,61.9933 234.5,54.5 Z"/></g>
<g><path style="opacity:1" fill="#b3d6fe" d="M 317.5,100.5 C 311.908,105.609 310.075,111.943 312,119.5C 312.275,122.412 313.109,125.079 314.5,127.5C 313.542,127.047 312.708,126.381 312,125.5C 311.64,123.392 310.973,121.392 310,119.5C 308.833,121.167 307.667,122.833 306.5,124.5C 305.749,123.624 305.249,122.624 305,121.5C 301.354,121.836 297.521,122.169 293.5,122.5C 293.5,123.5 293.5,124.5 293.5,125.5C 281.326,124.685 269.159,123.685 257,122.5C 240.534,124.048 224.034,124.714 207.5,124.5C 207.5,123.5 207.5,122.5 207.5,121.5C 209.833,121.5 212.167,121.5 214.5,121.5C 214.5,119.833 214.5,118.167 214.5,116.5C 211.606,116.958 209.106,116.291 207,114.5C 206.316,115.784 206.483,116.951 207.5,118C 206.953,118.925 206.287,119.758 205.5,120.5C 205.167,119.833 204.833,119.167 204.5,118.5C 203.269,119.651 203.269,120.817 204.5,122C 200.634,122.298 196.968,122.464 193.5,122.5C 201.324,107.679 211.99,95.3452 225.5,85.5C 226.552,85.6495 227.552,85.4828 228.5,85C 229.499,82.2389 231.499,80.9056 234.5,81C 239.035,77.0898 244.369,75.5898 250.5,76.5C 250.5,78.5 250.5,80.5 250.5,82.5C 269.167,82.5 287.833,82.5 306.5,82.5C 306.5,83.5 306.5,84.5 306.5,85.5C 285.164,85.6666 263.831,85.5 242.5,85C 242.957,84.586 243.291,84.086 243.5,83.5C 241.579,82.359 239.579,82.1923 237.5,83C 236.167,83.6667 236.167,84.3333 237.5,85C 236.833,85.3333 236.167,85.6667 235.5,86C 259.164,86.5 282.831,86.6666 306.5,86.5C 306.5,87.5 306.5,88.5 306.5,89.5C 310.514,89.3345 314.514,89.5012 318.5,90C 319.126,90.7504 319.626,91.5838 320,92.5C 320.317,90.6992 320.984,90.3659 322,91.5C 324.097,90.009 326.43,89.009 329,88.5C 331.139,89.7691 333.305,89.7691 335.5,88.5C 334.02,86.4557 334.52,85.1224 337,84.5C 340.043,85.7414 339.876,87.0747 336.5,88.5C 337.5,89.3333 338.5,90.1667 339.5,91C 333.5,91.6667 327.5,92.3333 321.5,93C 321.833,93.3333 322.167,93.6667 322.5,94C 319.506,95.1569 317.84,97.3236 317.5,100.5 Z"/></g>
<g><path style="opacity:1" fill="#4070ed" d="M 209.5,79.5 C 207.833,81.8333 205.833,83.8333 203.5,85.5C 202.624,85.6309 201.957,85.2975 201.5,84.5C 202.405,82.3619 203.405,80.1953 204.5,78C 206.391,77.7973 208.057,78.2973 209.5,79.5 Z"/></g>
<g><path style="opacity:1" fill="#b1d2fe" d="M 415.5,90.5 C 418.167,92.5 420.5,94.8333 422.5,97.5C 420.956,97.2969 419.622,96.6302 418.5,95.5C 416.833,96.6667 415.167,97.8333 413.5,99C 406.179,100.275 399.179,102.441 392.5,105.5C 391.749,104.624 391.249,103.624 391,102.5C 385.048,104.455 378.882,105.955 372.5,107C 368.637,108.181 365.137,110.014 362,112.5C 359.606,111.864 357.106,111.864 354.5,112.5C 354.665,116.182 354.499,119.848 354,123.5C 353.583,124.756 352.75,125.423 351.5,125.5C 354.337,118.045 354.004,110.711 350.5,103.5C 350.967,101.289 351.967,99.289 353.5,97.5C 355.454,98.6797 357.621,99.3463 360,99.5C 366.303,97.846 372.803,97.1794 379.5,97.5C 379.5,96.1667 379.5,94.8333 379.5,93.5C 387.257,92.0754 394.924,90.4087 402.5,88.5C 404.682,89.3772 406.849,89.0439 409,87.5C 410.722,87.6107 410.888,88.1107 409.5,89C 411.436,89.813 413.436,90.313 415.5,90.5 Z"/></g>
<g><path style="opacity:1" fill="#fcfefe" d="M 350.5,103.5 C 354.004,110.711 354.337,118.045 351.5,125.5C 349.149,129.253 346.149,132.253 342.5,134.5C 334.128,137.691 326.128,137.025 318.5,132.5C 317.92,130.251 316.587,128.585 314.5,127.5C 313.109,125.079 312.275,122.412 312,119.5C 310.075,111.943 311.908,105.609 317.5,100.5C 329.222,91.929 340.222,92.929 350.5,103.5 Z"/></g>
<g><path style="opacity:1" fill="#a7cafe" d="M 422.5,97.5 C 426.784,100.752 430.118,104.752 432.5,109.5C 430.852,108.19 429.186,106.857 427.5,105.5C 426.167,106.833 424.833,108.167 423.5,109.5C 421.714,107.979 419.881,107.646 418,108.5C 417.667,107.833 417.333,107.167 417,106.5C 416.505,108.473 416.338,110.473 416.5,112.5C 408.783,112.732 401.45,114.565 394.5,118C 389.481,118.411 384.481,118.911 379.5,119.5C 379.62,122.205 378.62,122.872 376.5,121.5C 375.354,122.145 374.354,122.978 373.5,124C 369.326,124.167 365.493,125.333 362,127.5C 361.586,127.043 361.086,126.709 360.5,126.5C 358.5,127.833 356.5,129.167 354.5,130.5C 353.914,130.291 353.414,129.957 353,129.5C 350.752,131.168 349.252,132.835 348.5,134.5C 346.674,134.08 344.674,134.08 342.5,134.5C 346.149,132.253 349.149,129.253 351.5,125.5C 352.75,125.423 353.583,124.756 354,123.5C 354.499,119.848 354.665,116.182 354.5,112.5C 357.106,111.864 359.606,111.864 362,112.5C 365.137,110.014 368.637,108.181 372.5,107C 378.882,105.955 385.048,104.455 391,102.5C 391.249,103.624 391.749,104.624 392.5,105.5C 399.179,102.441 406.179,100.275 413.5,99C 415.167,97.8333 416.833,96.6667 418.5,95.5C 419.622,96.6302 420.956,97.2969 422.5,97.5 Z"/></g>
<g><path style="opacity:1" fill="#4676e8" d="M 200.5,89.5 C 189.077,101.927 180.077,115.927 173.5,131.5C 172.599,132.29 171.932,133.29 171.5,134.5C 170.883,134.611 170.383,134.944 170,135.5C 168.921,132.937 168.421,130.271 168.5,127.5C 175.083,111.599 184.416,97.5988 196.5,85.5C 199.901,84.2266 201.234,85.56 200.5,89.5 Z"/></g>
<g><path style="opacity:1" fill="#98bffd" d="M 440.5,121.5 C 443.997,126.013 446.663,131.013 448.5,136.5C 446.178,134.506 444.178,132.173 442.5,129.5C 442.343,131.513 441.676,133.179 440.5,134.5C 432.327,135.801 423.994,136.635 415.5,137C 411.773,139.986 407.439,141.319 402.5,141C 401.315,142.353 399.981,143.52 398.5,144.5C 397.377,143.456 396.044,142.79 394.5,142.5C 390.292,143.236 386.292,144.569 382.5,146.5C 378.982,143.518 375.982,143.851 373.5,147.5C 365.383,150.651 357.05,152.984 348.5,154.5C 357.766,155.972 357.766,157.138 348.5,158C 348.833,158.333 349.167,158.667 349.5,159C 348.915,160.302 348.249,161.469 347.5,162.5C 346.883,162.389 346.383,162.056 346,161.5C 344.714,164.405 343.714,167.405 343,170.5C 341.951,173.187 340.451,175.52 338.5,177.5C 340.403,171.958 342.403,166.458 344.5,161C 339.833,160.333 335.167,160.333 330.5,161C 315.184,163.365 299.85,165.531 284.5,167.5C 284.007,169.806 283.674,172.139 283.5,174.5C 289.992,173.085 294.992,175.085 298.5,180.5C 287.558,178.98 276.558,177.98 265.5,177.5C 262.456,175.989 259.122,175.322 255.5,175.5C 255.158,174.662 254.492,174.328 253.5,174.5C 250.465,173.626 247.465,172.626 244.5,171.5C 245.429,170.685 246.429,169.852 247.5,169C 257.873,165.323 268.54,162.657 279.5,161C 280.833,160.333 281.833,159.333 282.5,158C 292.377,155.617 302.044,152.784 311.5,149.5C 313.017,150.911 314.351,150.744 315.5,149C 319.689,148.664 323.856,148.164 328,147.5C 329.366,147.706 330.699,148.04 332,148.5C 335.001,147.082 338.168,146.249 341.5,146C 338.089,145.091 334.755,144.091 331.5,143C 336.075,141.988 340.408,142.488 344.5,144.5C 347.768,142.619 350.934,140.619 354,138.5C 354.772,138.645 355.439,138.978 356,139.5C 362.916,136.28 370.082,134.113 377.5,133C 376.5,132.667 375.5,132.333 374.5,132C 378.152,131.501 381.818,131.335 385.5,131.5C 385.5,130.5 385.5,129.5 385.5,128.5C 391.833,128.5 398.167,128.5 404.5,128.5C 404.5,127.167 404.5,125.833 404.5,124.5C 411.256,124.43 417.923,123.596 424.5,122C 423.692,121.692 423.025,121.192 422.5,120.5C 424.396,119.534 426.396,119.201 428.5,119.5C 428.5,120.5 428.5,121.5 428.5,122.5C 432.802,122.297 436.802,121.964 440.5,121.5 Z"/></g>
<g><path style="opacity:1" fill="#add2fe" d="M 314.5,127.5 C 316.587,128.585 317.92,130.251 318.5,132.5C 317.85,132.804 317.183,133.137 316.5,133.5C 313.724,131.87 310.724,131.203 307.5,131.5C 307.649,130.448 307.483,129.448 307,128.5C 306.957,132.731 304.79,134.564 300.5,134C 301.167,134.333 301.833,134.667 302.5,135C 301.216,135.684 300.049,135.517 299,134.5C 293.999,136.944 288.832,138.777 283.5,140C 284.167,140.333 284.833,140.667 285.5,141C 283.335,142.564 281.668,142.397 280.5,140.5C 278.833,141.333 277.167,142.167 275.5,143C 276.167,143.333 276.833,143.667 277.5,144C 274.881,144.151 272.547,144.985 270.5,146.5C 266.799,143.803 263.465,144.303 260.5,148C 255.459,148.197 250.792,149.53 246.5,152C 248.301,152.317 248.634,152.984 247.5,154C 238.851,155.221 231.018,157.721 224,161.5C 221.808,160.601 219.642,159.601 217.5,158.5C 217.891,159.718 217.224,160.552 215.5,161C 216.833,161.333 218.167,161.667 219.5,162C 220.774,162.977 220.774,163.811 219.5,164.5C 206.648,160.074 194.648,154.074 183.5,146.5C 182.817,146.863 182.15,147.196 181.5,147.5C 181.557,146.391 181.89,145.391 182.5,144.5C 185.413,136.742 189.08,129.409 193.5,122.5C 196.968,122.464 200.634,122.298 204.5,122C 203.269,120.817 203.269,119.651 204.5,118.5C 204.833,119.167 205.167,119.833 205.5,120.5C 206.287,119.758 206.953,118.925 207.5,118C 206.483,116.951 206.316,115.784 207,114.5C 209.106,116.291 211.606,116.958 214.5,116.5C 214.5,118.167 214.5,119.833 214.5,121.5C 212.167,121.5 209.833,121.5 207.5,121.5C 207.5,122.5 207.5,123.5 207.5,124.5C 224.034,124.714 240.534,124.048 257,122.5C 269.159,123.685 281.326,124.685 293.5,125.5C 293.5,124.5 293.5,123.5 293.5,122.5C 297.521,122.169 301.354,121.836 305,121.5C 305.249,122.624 305.749,123.624 306.5,124.5C 307.667,122.833 308.833,121.167 310,119.5C 310.973,121.392 311.64,123.392 312,125.5C 312.708,126.381 313.542,127.047 314.5,127.5 Z"/></g>
<g><path style="opacity:1" fill="#a6cbfe" d="M 318.5,132.5 C 326.128,137.025 334.128,137.691 342.5,134.5C 342.063,136.074 341.063,137.241 339.5,138C 337.167,138.333 334.833,138.667 332.5,139C 334.595,139.556 334.762,140.056 333,140.5C 331.831,139.991 330.998,139.158 330.5,138C 327.167,137.333 323.833,137.333 320.5,138C 322.595,138.556 322.762,139.056 321,139.5C 320.228,139.355 319.561,139.022 319,138.5C 318.626,139.416 318.126,140.25 317.5,141C 312.004,140.587 307.338,142.254 303.5,146C 293.241,149.531 282.907,152.864 272.5,156C 270.122,156.974 270.456,157.641 273.5,158C 268.591,155.62 264.258,156.62 260.5,161C 257.167,161.333 253.833,161.667 250.5,162C 248.893,163.727 247.226,165.561 245.5,167.5C 244.614,166.675 244.281,165.675 244.5,164.5C 240.712,166.243 236.712,167.577 232.5,168.5C 228.214,167.293 223.88,166.293 219.5,165.5C 219.5,165.167 219.5,164.833 219.5,164.5C 220.774,163.811 220.774,162.977 219.5,162C 218.167,161.667 216.833,161.333 215.5,161C 217.224,160.552 217.891,159.718 217.5,158.5C 219.642,159.601 221.808,160.601 224,161.5C 231.018,157.721 238.851,155.221 247.5,154C 248.634,152.984 248.301,152.317 246.5,152C 250.792,149.53 255.459,148.197 260.5,148C 263.465,144.303 266.799,143.803 270.5,146.5C 272.547,144.985 274.881,144.151 277.5,144C 276.833,143.667 276.167,143.333 275.5,143C 277.167,142.167 278.833,141.333 280.5,140.5C 281.668,142.397 283.335,142.564 285.5,141C 284.833,140.667 284.167,140.333 283.5,140C 288.832,138.777 293.999,136.944 299,134.5C 300.049,135.517 301.216,135.684 302.5,135C 301.833,134.667 301.167,134.333 300.5,134C 304.79,134.564 306.957,132.731 307,128.5C 307.483,129.448 307.649,130.448 307.5,131.5C 310.724,131.203 313.724,131.87 316.5,133.5C 317.183,133.137 317.85,132.804 318.5,132.5 Z"/></g>
<g><path style="opacity:1" fill="#92b9fd" d="M 448.5,136.5 C 450.273,139.18 451.607,142.18 452.5,145.5C 451.833,145.167 451.167,144.833 450.5,144.5C 448.955,143.77 448.122,142.437 448,140.5C 447.667,142.167 447.333,143.833 447,145.5C 446.275,144.941 445.442,144.608 444.5,144.5C 441.625,145.903 438.625,146.903 435.5,147.5C 435.167,147.833 434.833,148.167 434.5,148.5C 435.811,149.258 436.311,150.258 436,151.5C 434.253,152.33 432.587,153.33 431,154.5C 430.5,154.167 430,153.833 429.5,153.5C 430.313,152.186 431.313,151.019 432.5,150C 431.216,149.316 430.049,149.483 429,150.5C 428.667,149.833 428.333,149.167 428,148.5C 425.915,150.082 424.415,152.082 423.5,154.5C 422.833,153.5 422.167,152.5 421.5,151.5C 421.264,152.247 420.93,153.08 420.5,154C 418.833,154.167 417.167,154.333 415.5,154.5C 412.989,154.712 410.822,154.045 409,152.5C 408.167,154 407,155.167 405.5,156C 398.856,156.887 392.189,157.554 385.5,158C 387.481,158.605 387.815,159.605 386.5,161C 373.659,161.041 361.825,164.208 351,170.5C 350.733,168.741 349.9,167.075 348.5,165.5C 348.709,164.914 349.043,164.414 349.5,164C 348.584,163.722 347.918,163.222 347.5,162.5C 348.249,161.469 348.915,160.302 349.5,159C 349.167,158.667 348.833,158.333 348.5,158C 357.766,157.138 357.766,155.972 348.5,154.5C 357.05,152.984 365.383,150.651 373.5,147.5C 375.982,143.851 378.982,143.518 382.5,146.5C 386.292,144.569 390.292,143.236 394.5,142.5C 396.044,142.79 397.377,143.456 398.5,144.5C 399.981,143.52 401.315,142.353 402.5,141C 407.439,141.319 411.773,139.986 415.5,137C 423.994,136.635 432.327,135.801 440.5,134.5C 441.676,133.179 442.343,131.513 442.5,129.5C 444.178,132.173 446.178,134.506 448.5,136.5 Z"/></g>
<g><path style="opacity:1" fill="#4575e6" d="M 383.5,45.5 C 439.098,71.787 471.431,115.454 480.5,176.5C 478.78,174.342 477.947,171.675 478,168.5C 477.667,169.167 477.333,169.833 477,170.5C 476.667,166.833 476.333,163.167 476,159.5C 475.065,161.909 474.565,164.409 474.5,167C 475.225,172.143 475.559,177.31 475.5,182.5C 474.596,181.791 474.263,180.791 474.5,179.5C 472.783,157.943 466.45,137.943 455.5,119.5C 436.997,86.6651 410.33,62.9984 375.5,48.5C 377.401,48.4332 379.234,48.7665 381,49.5C 382.595,48.6443 383.428,47.3109 383.5,45.5 Z"/></g>
<g><path style="opacity:1" fill="#547ce1" d="M 168.5,127.5 C 168.421,130.271 168.921,132.937 170,135.5C 170.383,134.944 170.883,134.611 171.5,134.5C 171.204,136.403 170.537,138.07 169.5,139.5C 169.143,137.411 168.477,135.411 167.5,133.5C 166.642,135.901 165.309,137.901 163.5,139.5C 164.406,135.099 166.072,131.099 168.5,127.5 Z"/></g>
<g><path style="opacity:1" fill="#9ec5fe" d="M 432.5,109.5 C 436.156,112.803 438.822,116.803 440.5,121.5C 436.802,121.964 432.802,122.297 428.5,122.5C 428.5,121.5 428.5,120.5 428.5,119.5C 426.396,119.201 424.396,119.534 422.5,120.5C 423.025,121.192 423.692,121.692 424.5,122C 417.923,123.596 411.256,124.43 404.5,124.5C 404.5,125.833 404.5,127.167 404.5,128.5C 398.167,128.5 391.833,128.5 385.5,128.5C 385.5,129.5 385.5,130.5 385.5,131.5C 381.818,131.335 378.152,131.501 374.5,132C 375.5,132.333 376.5,132.667 377.5,133C 370.082,134.113 362.916,136.28 356,139.5C 355.439,138.978 354.772,138.645 354,138.5C 350.934,140.619 347.768,142.619 344.5,144.5C 340.408,142.488 336.075,141.988 331.5,143C 334.755,144.091 338.089,145.091 341.5,146C 338.168,146.249 335.001,147.082 332,148.5C 330.699,148.04 329.366,147.706 328,147.5C 323.856,148.164 319.689,148.664 315.5,149C 314.351,150.744 313.017,150.911 311.5,149.5C 302.044,152.784 292.377,155.617 282.5,158C 281.833,159.333 280.833,160.333 279.5,161C 268.54,162.657 257.873,165.323 247.5,169C 246.429,169.852 245.429,170.685 244.5,171.5C 240.098,171.692 236.098,170.692 232.5,168.5C 236.712,167.577 240.712,166.243 244.5,164.5C 244.281,165.675 244.614,166.675 245.5,167.5C 247.226,165.561 248.893,163.727 250.5,162C 253.833,161.667 257.167,161.333 260.5,161C 264.258,156.62 268.591,155.62 273.5,158C 270.456,157.641 270.122,156.974 272.5,156C 282.907,152.864 293.241,149.531 303.5,146C 307.338,142.254 312.004,140.587 317.5,141C 318.126,140.25 318.626,139.416 319,138.5C 319.561,139.022 320.228,139.355 321,139.5C 322.762,139.056 322.595,138.556 320.5,138C 323.833,137.333 327.167,137.333 330.5,138C 330.998,139.158 331.831,139.991 333,140.5C 334.762,140.056 334.595,139.556 332.5,139C 334.833,138.667 337.167,138.333 339.5,138C 341.063,137.241 342.063,136.074 342.5,134.5C 344.674,134.08 346.674,134.08 348.5,134.5C 349.252,132.835 350.752,131.168 353,129.5C 353.414,129.957 353.914,130.291 354.5,130.5C 356.5,129.167 358.5,127.833 360.5,126.5C 361.086,126.709 361.586,127.043 362,127.5C 365.493,125.333 369.326,124.167 373.5,124C 374.354,122.978 375.354,122.145 376.5,121.5C 378.62,122.872 379.62,122.205 379.5,119.5C 384.481,118.911 389.481,118.411 394.5,118C 401.45,114.565 408.783,112.732 416.5,112.5C 416.338,110.473 416.505,108.473 417,106.5C 417.333,107.167 417.667,107.833 418,108.5C 419.881,107.646 421.714,107.979 423.5,109.5C 424.833,108.167 426.167,106.833 427.5,105.5C 429.186,106.857 430.852,108.19 432.5,109.5 Z"/></g>
<g><path style="opacity:1" fill="#3b72f0" d="M 169.5,139.5 C 169.167,140.833 168.833,142.167 168.5,143.5C 167.5,143.5 166.5,143.5 165.5,143.5C 165.799,145.604 165.466,147.604 164.5,149.5C 163.513,146.232 163.18,142.898 163.5,139.5C 165.309,137.901 166.642,135.901 167.5,133.5C 168.477,135.411 169.143,137.411 169.5,139.5 Z"/></g>
<g><path style="opacity:1" fill="#89bdfc" d="M 219.5,164.5 C 219.5,164.833 219.5,165.167 219.5,165.5C 217.198,166.822 214.865,166.822 212.5,165.5C 211.252,166.04 210.085,166.707 209,167.5C 208.667,167.167 208.333,166.833 208,166.5C 200.178,171.61 191.678,175.443 182.5,178C 180.644,182.053 178.477,185.219 176,187.5C 174.863,194.12 174.363,200.786 174.5,207.5C 174.167,207.5 173.833,207.5 173.5,207.5C 172.267,186.909 174.934,166.909 181.5,147.5C 182.15,147.196 182.817,146.863 183.5,146.5C 194.648,154.074 206.648,160.074 219.5,164.5 Z"/></g>
<g><path style="opacity:1" fill="#8db5fd" d="M 450.5,144.5 C 446.112,148.221 441.445,151.555 436.5,154.5C 405.52,169.381 372.854,177.714 338.5,179.5C 338.5,178.833 338.5,178.167 338.5,177.5C 340.451,175.52 341.951,173.187 343,170.5C 343.714,167.405 344.714,164.405 346,161.5C 346.383,162.056 346.883,162.389 347.5,162.5C 347.918,163.222 348.584,163.722 349.5,164C 349.043,164.414 348.709,164.914 348.5,165.5C 349.9,167.075 350.733,168.741 351,170.5C 361.825,164.208 373.659,161.041 386.5,161C 387.815,159.605 387.481,158.605 385.5,158C 392.189,157.554 398.856,156.887 405.5,156C 407,155.167 408.167,154 409,152.5C 410.822,154.045 412.989,154.712 415.5,154.5C 417.167,154.333 418.833,154.167 420.5,154C 420.93,153.08 421.264,152.247 421.5,151.5C 422.167,152.5 422.833,153.5 423.5,154.5C 424.415,152.082 425.915,150.082 428,148.5C 428.333,149.167 428.667,149.833 429,150.5C 430.049,149.483 431.216,149.316 432.5,150C 431.313,151.019 430.313,152.186 429.5,153.5C 430,153.833 430.5,154.167 431,154.5C 432.587,153.33 434.253,152.33 436,151.5C 436.311,150.258 435.811,149.258 434.5,148.5C 434.833,148.167 435.167,147.833 435.5,147.5C 438.625,146.903 441.625,145.903 444.5,144.5C 445.442,144.608 446.275,144.941 447,145.5C 447.333,143.833 447.667,142.167 448,140.5C 448.122,142.437 448.955,143.77 450.5,144.5 Z"/></g>
<g><path style="opacity:1" fill="#5a92fc" d="M 450.5,144.5 C 451.167,144.833 451.833,145.167 452.5,145.5C 456.872,156.665 459.539,168.331 460.5,180.5C 459.9,181.9 458.9,182.9 457.5,183.5C 458.295,178.851 458.461,174.184 458,169.5C 457.667,172.167 457.333,174.833 457,177.5C 456.667,175.5 456.333,173.5 456,171.5C 455.259,170.359 454.425,170.359 453.5,171.5C 452.526,169.257 452.192,166.924 452.5,164.5C 450.159,164.992 448.159,166.159 446.5,168C 443.027,167.865 440.194,169.031 438,171.5C 437.127,171.265 436.293,170.931 435.5,170.5C 433.772,172.226 431.772,173.559 429.5,174.5C 428.914,174.291 428.414,173.957 428,173.5C 424.476,176.229 420.643,178.395 416.5,180C 410.305,182.254 403.972,184.254 397.5,186C 389.934,191.908 381.267,195.408 371.5,196.5C 370.24,197.382 369.074,198.382 368,199.5C 367.667,198.833 367.333,198.167 367,197.5C 365.786,199.049 364.286,200.215 362.5,201C 363.711,201.893 363.711,202.726 362.5,203.5C 361.833,202.833 361.167,202.167 360.5,201.5C 359.094,202.951 357.594,204.284 356,205.5C 355.667,204.833 355.333,204.167 355,203.5C 348.887,207.94 342.054,210.44 334.5,211C 332.86,212.395 331.36,213.895 330,215.5C 329.667,214.833 329.333,214.167 329,213.5C 328.846,216.232 329.346,218.898 330.5,221.5C 330.167,221.833 329.833,222.167 329.5,222.5C 328.667,221.5 327.833,220.5 327,219.5C 327.314,222.546 327.147,225.546 326.5,228.5C 325.859,227.007 324.859,226.007 323.5,225.5C 326.863,215.082 330.196,204.749 333.5,194.5C 334.117,194.389 334.617,194.056 335,193.5C 335.89,199.146 336.89,199.479 338,194.5C 339.011,195.337 340.178,195.67 341.5,195.5C 341.337,197.857 341.503,200.19 342,202.5C 342.875,201.127 343.375,199.627 343.5,198C 342.597,195.921 341.931,193.754 341.5,191.5C 341.721,188.057 342.721,187.724 344.5,190.5C 346.444,189.811 348.444,189.311 350.5,189C 351.729,187.471 353.229,186.304 355,185.5C 355.333,186.167 355.667,186.833 356,187.5C 357.582,184.659 359.749,183.659 362.5,184.5C 363.893,183.137 365.559,182.304 367.5,182C 365.071,181.549 364.904,180.715 367,179.5C 367.333,179.833 367.667,180.167 368,180.5C 372.489,179.678 376.823,178.345 381,176.5C 384.451,176.954 387.951,176.454 391.5,175C 390.833,174.667 390.167,174.333 389.5,174C 391.515,173.576 393.349,172.742 395,171.5C 407.844,169.075 420.011,164.908 431.5,159C 433.398,157.583 435.064,156.083 436.5,154.5C 441.445,151.555 446.112,148.221 450.5,144.5 Z"/></g>
<g><path style="opacity:1" fill="#d3e0fb" d="M 193.5,115.5 C 188.079,123.676 183.745,132.343 180.5,141.5C 180.64,143.03 181.307,144.03 182.5,144.5C 181.89,145.391 181.557,146.391 181.5,147.5C 174.934,166.909 172.267,186.909 173.5,207.5C 172.67,196.674 172.17,185.674 172,174.5C 170.759,178.699 169.759,183.033 169,187.5C 168.695,184.503 168.862,181.503 169.5,178.5C 169.564,176.611 169.064,174.944 168,173.5C 167.385,175.116 166.385,176.449 165,177.5C 163.565,189.841 163.232,202.174 164,214.5C 162.806,212.377 162.14,210.043 162,207.5C 161.168,186.177 160.668,186.177 160.5,207.5C 158.411,185.645 161.077,164.312 168.5,143.5C 168.833,142.167 169.167,140.833 169.5,139.5C 170.537,138.07 171.204,136.403 171.5,134.5C 171.932,133.29 172.599,132.29 173.5,131.5C 174.496,131.586 175.329,131.252 176,130.5C 177.7,127.961 179.2,125.295 180.5,122.5C 181.713,125.956 183.713,126.789 186.5,125C 187.926,122.227 189.26,119.393 190.5,116.5C 191.325,115.614 192.325,115.281 193.5,115.5 Z"/></g>
<g><path style="opacity:0.953" fill="#5b80db" d="M 159.5,152.5 C 159.664,155.187 159.497,157.854 159,160.5C 158.262,163.501 157.096,166.168 155.5,168.5C 155.961,162.836 157.294,157.503 159.5,152.5 Z"/></g>
<g><path style="opacity:1" fill="#fbfdfd" d="M 338.5,177.5 C 338.5,178.167 338.5,178.833 338.5,179.5C 336.375,184.327 334.708,189.327 333.5,194.5C 330.196,204.749 326.863,215.082 323.5,225.5C 319.609,236.985 315.943,248.652 312.5,260.5C 310.736,265.639 310.069,270.972 310.5,276.5C 312.989,276.702 315.323,276.202 317.5,275C 323.399,268.773 328.899,262.273 334,255.5C 335.49,256.317 336.99,257.15 338.5,258C 337.086,259.993 336.086,262.16 335.5,264.5C 331.601,269.284 327.934,274.284 324.5,279.5C 323.833,279.5 323.5,279.833 323.5,280.5C 318.393,285.949 312.726,290.616 306.5,294.5C 300.059,296.586 293.393,297.419 286.5,297C 281.233,296.036 276.899,293.536 273.5,289.5C 271.392,282.633 271.059,275.633 272.5,268.5C 276.938,258.263 280.271,247.596 282.5,236.5C 283.993,234.098 284.993,231.431 285.5,228.5C 287.47,222.251 289.47,215.918 291.5,209.5C 294.179,202.348 296.679,195.014 299,187.5C 299.796,184.961 299.629,182.628 298.5,180.5C 294.992,175.085 289.992,173.085 283.5,174.5C 283.674,172.139 284.007,169.806 284.5,167.5C 299.85,165.531 315.184,163.365 330.5,161C 335.167,160.333 339.833,160.333 344.5,161C 342.403,166.458 340.403,171.958 338.5,177.5 Z"/></g>
<g><path style="opacity:1" fill="#548cfb" d="M 457.5,183.5 C 456.839,182.282 456.172,180.949 455.5,179.5C 454.669,186.811 454.169,194.144 454,201.5C 453.632,196.066 452.799,190.733 451.5,185.5C 449.104,187.067 446.437,187.9 443.5,188C 441.323,189.186 440.323,191.019 440.5,193.5C 436.832,193.75 433.332,193.75 430,193.5C 425.153,197.839 419.653,201.006 413.5,203C 406.879,204.522 400.212,205.855 393.5,207C 391.996,208.337 390.996,210.004 390.5,212C 387.5,212.333 384.5,212.667 381.5,213C 380.027,213.71 379.36,214.876 379.5,216.5C 376.348,218.428 373.015,219.095 369.5,218.5C 364.654,222.117 359.321,224.784 353.5,226.5C 346.341,227.691 339.341,229.358 332.5,231.5C 333.833,232.167 335.167,232.833 336.5,233.5C 334.807,235.027 332.973,236.36 331,237.5C 330.131,242.508 329.464,242.175 329,236.5C 328.583,235.244 327.75,234.577 326.5,234.5C 326.294,232.451 325.461,232.117 324,233.5C 323.503,230.854 323.336,228.187 323.5,225.5C 324.859,226.007 325.859,227.007 326.5,228.5C 327.147,225.546 327.314,222.546 327,219.5C 327.833,220.5 328.667,221.5 329.5,222.5C 329.833,222.167 330.167,221.833 330.5,221.5C 329.346,218.898 328.846,216.232 329,213.5C 329.333,214.167 329.667,214.833 330,215.5C 331.36,213.895 332.86,212.395 334.5,211C 342.054,210.44 348.887,207.94 355,203.5C 355.333,204.167 355.667,204.833 356,205.5C 357.594,204.284 359.094,202.951 360.5,201.5C 361.167,202.167 361.833,202.833 362.5,203.5C 363.711,202.726 363.711,201.893 362.5,201C 364.286,200.215 365.786,199.049 367,197.5C 367.333,198.167 367.667,198.833 368,199.5C 369.074,198.382 370.24,197.382 371.5,196.5C 381.267,195.408 389.934,191.908 397.5,186C 403.972,184.254 410.305,182.254 416.5,180C 420.643,178.395 424.476,176.229 428,173.5C 428.414,173.957 428.914,174.291 429.5,174.5C 431.772,173.559 433.772,172.226 435.5,170.5C 436.293,170.931 437.127,171.265 438,171.5C 440.194,169.031 443.027,167.865 446.5,168C 448.159,166.159 450.159,164.992 452.5,164.5C 452.192,166.924 452.526,169.257 453.5,171.5C 454.425,170.359 455.259,170.359 456,171.5C 456.333,173.5 456.667,175.5 457,177.5C 457.333,174.833 457.667,172.167 458,169.5C 458.461,174.184 458.295,178.851 457.5,183.5 Z"/></g>
<g><path style="opacity:1" fill="#7bb2fd" d="M 219.5,165.5 C 223.88,166.293 228.214,167.293 232.5,168.5C 236.098,170.692 240.098,171.692 244.5,171.5C 247.465,172.626 250.465,173.626 253.5,174.5C 247.041,174.964 241.208,173.964 236,171.5C 232.886,172.974 229.719,174.307 226.5,175.5C 223.424,179.371 219.424,181.038 214.5,180.5C 214.5,181.5 214.5,182.5 214.5,183.5C 210.119,183.372 205.785,183.705 201.5,184.5C 201.703,186.39 201.037,187.89 199.5,189C 191.485,190.993 184.152,193.659 177.5,197C 177.398,199.329 177.731,201.829 178.5,204.5C 177.778,204.918 177.278,205.584 177,206.5C 176.667,205.833 176.333,205.167 176,204.5C 175.898,210.825 176.065,217.158 176.5,223.5C 174.74,218.447 174.073,213.114 174.5,207.5C 174.363,200.786 174.863,194.12 176,187.5C 178.477,185.219 180.644,182.053 182.5,178C 191.678,175.443 200.178,171.61 208,166.5C 208.333,166.833 208.667,167.167 209,167.5C 210.085,166.707 211.252,166.04 212.5,165.5C 214.865,166.822 217.198,166.822 219.5,165.5 Z"/></g>
<g><path style="opacity:1" fill="#73abfe" d="M 253.5,174.5 C 254.492,174.328 255.158,174.662 255.5,175.5C 244.607,177.025 234.44,180.691 225,186.5C 220.667,187.295 216.5,188.462 212.5,190C 203.624,193.985 194.624,197.819 185.5,201.5C 183.312,202.401 181.479,203.735 180,205.5C 179.617,204.944 179.117,204.611 178.5,204.5C 177.731,201.829 177.398,199.329 177.5,197C 184.152,193.659 191.485,190.993 199.5,189C 201.037,187.89 201.703,186.39 201.5,184.5C 205.785,183.705 210.119,183.372 214.5,183.5C 214.5,182.5 214.5,181.5 214.5,180.5C 219.424,181.038 223.424,179.371 226.5,175.5C 229.719,174.307 232.886,172.974 236,171.5C 241.208,173.964 247.041,174.964 253.5,174.5 Z"/></g>
<g><path style="opacity:1" fill="#6ca4fe" d="M 255.5,175.5 C 259.122,175.322 262.456,175.989 265.5,177.5C 264.448,177.351 263.448,177.517 262.5,178C 258.942,181.227 255.109,184.061 251,186.5C 250.667,185.833 250.333,185.167 250,184.5C 248.938,185.899 247.605,186.899 246,187.5C 244,186.167 242,186.167 240,187.5C 238.485,190.188 236.318,192.188 233.5,193.5C 232.833,192.5 232.167,191.5 231.5,190.5C 229.142,192.287 226.475,193.287 223.5,193.5C 223.725,195.716 222.892,197.383 221,198.5C 220.333,197.833 219.667,197.167 219,196.5C 213.492,197.666 208.325,199.666 203.5,202.5C 205.802,203.999 205.469,205.332 202.5,206.5C 201.808,205.975 201.308,205.308 201,204.5C 199.559,205.26 198.059,205.926 196.5,206.5C 194.425,205.238 192.425,205.405 190.5,207C 192.481,207.605 192.815,208.605 191.5,210C 187.595,209.285 184.595,210.785 182.5,214.5C 182.646,213.508 182.313,212.342 181.5,211C 181.15,209.743 180.483,209.409 179.5,210C 179.626,211.974 179.792,214.141 180,216.5C 180.454,218.536 181.287,220.37 182.5,222C 180.737,226.35 179.737,230.85 179.5,235.5C 178.132,231.702 177.132,227.702 176.5,223.5C 176.065,217.158 175.898,210.825 176,204.5C 176.333,205.167 176.667,205.833 177,206.5C 177.278,205.584 177.778,204.918 178.5,204.5C 179.117,204.611 179.617,204.944 180,205.5C 181.479,203.735 183.312,202.401 185.5,201.5C 194.624,197.819 203.624,193.985 212.5,190C 216.5,188.462 220.667,187.295 225,186.5C 234.44,180.691 244.607,177.025 255.5,175.5 Z"/></g>
<g><path style="opacity:1" fill="#659ffd" d="M 265.5,177.5 C 276.558,177.98 287.558,178.98 298.5,180.5C 299.629,182.628 299.796,184.961 299,187.5C 296.679,195.014 294.179,202.348 291.5,209.5C 291.778,205.164 292.778,200.997 294.5,197C 293.744,193.875 293.411,190.709 293.5,187.5C 287.766,188.286 282.766,190.619 278.5,194.5C 273.491,197.114 268.158,198.614 262.5,199C 258.487,201.006 254.82,203.506 251.5,206.5C 250.833,206.167 250.167,205.833 249.5,205.5C 243.941,208.284 238.441,210.617 233,212.5C 232.667,211.833 232.333,211.167 232,210.5C 228.342,213.161 224.675,215.828 221,218.5C 220.676,216.431 219.842,216.098 218.5,217.5C 217.614,218.325 217.281,219.325 217.5,220.5C 213.861,220.11 210.695,221.11 208,223.5C 207.667,222.833 207.333,222.167 207,221.5C 205.202,223.837 203.035,224.503 200.5,223.5C 198.346,225.548 196.013,227.381 193.5,229C 191.598,230.651 189.598,230.984 187.5,230C 185.031,231.827 182.698,233.827 180.5,236C 181.866,238.997 182.533,242.164 182.5,245.5C 181.13,242.381 180.13,239.048 179.5,235.5C 179.737,230.85 180.737,226.35 182.5,222C 181.287,220.37 180.454,218.536 180,216.5C 179.792,214.141 179.626,211.974 179.5,210C 180.483,209.409 181.15,209.743 181.5,211C 182.313,212.342 182.646,213.508 182.5,214.5C 184.595,210.785 187.595,209.285 191.5,210C 192.815,208.605 192.481,207.605 190.5,207C 192.425,205.405 194.425,205.238 196.5,206.5C 198.059,205.926 199.559,205.26 201,204.5C 201.308,205.308 201.808,205.975 202.5,206.5C 205.469,205.332 205.802,203.999 203.5,202.5C 208.325,199.666 213.492,197.666 219,196.5C 219.667,197.167 220.333,197.833 221,198.5C 222.892,197.383 223.725,195.716 223.5,193.5C 226.475,193.287 229.142,192.287 231.5,190.5C 232.167,191.5 232.833,192.5 233.5,193.5C 236.318,192.188 238.485,190.188 240,187.5C 242,186.167 244,186.167 246,187.5C 247.605,186.899 248.938,185.899 250,184.5C 250.333,185.167 250.667,185.833 251,186.5C 255.109,184.061 258.942,181.227 262.5,178C 263.448,177.517 264.448,177.351 265.5,177.5 Z"/></g>
<g><path style="opacity:1" fill="#6097fb" d="M 436.5,154.5 C 435.064,156.083 433.398,157.583 431.5,159C 420.011,164.908 407.844,169.075 395,171.5C 393.349,172.742 391.515,173.576 389.5,174C 390.167,174.333 390.833,174.667 391.5,175C 387.951,176.454 384.451,176.954 381,176.5C 376.823,178.345 372.489,179.678 368,180.5C 367.667,180.167 367.333,179.833 367,179.5C 364.904,180.715 365.071,181.549 367.5,182C 365.559,182.304 363.893,183.137 362.5,184.5C 359.749,183.659 357.582,184.659 356,187.5C 355.667,186.833 355.333,186.167 355,185.5C 353.229,186.304 351.729,187.471 350.5,189C 348.444,189.311 346.444,189.811 344.5,190.5C 342.721,187.724 341.721,188.057 341.5,191.5C 341.931,193.754 342.597,195.921 343.5,198C 343.375,199.627 342.875,201.127 342,202.5C 341.503,200.19 341.337,197.857 341.5,195.5C 340.178,195.67 339.011,195.337 338,194.5C 336.89,199.479 335.89,199.146 335,193.5C 334.617,194.056 334.117,194.389 333.5,194.5C 334.708,189.327 336.375,184.327 338.5,179.5C 372.854,177.714 405.52,169.381 436.5,154.5 Z"/></g>
<g><path style="opacity:1" fill="#4f86fa" d="M 457.5,183.5 C 458.9,182.9 459.9,181.9 460.5,180.5C 461.493,189.318 461.827,198.318 461.5,207.5C 461.5,208.167 461.167,208.5 460.5,208.5C 460.44,207.957 460.107,207.624 459.5,207.5C 458.833,208.833 458.167,210.167 457.5,211.5C 457.958,207.499 457.458,203.499 456,199.5C 455.229,202.19 454.396,204.856 453.5,207.5C 452.808,206.975 452.308,206.308 452,205.5C 450.202,207.837 448.035,208.503 445.5,207.5C 442.51,210.272 439.177,212.605 435.5,214.5C 434.833,214.167 434.167,213.833 433.5,213.5C 430.026,215.55 426.526,217.55 423,219.5C 422.692,218.692 422.192,218.025 421.5,217.5C 418.172,220.319 414.672,222.986 411,225.5C 410.692,224.692 410.192,224.025 409.5,223.5C 404.047,227.059 398.047,229.059 391.5,229.5C 391.5,230.5 391.5,231.5 391.5,232.5C 385.345,233.943 379.511,236.276 374,239.5C 371.816,238.892 369.816,239.559 368,241.5C 367.586,241.043 367.086,240.709 366.5,240.5C 360.403,242.436 354.903,245.436 350,249.5C 348.135,248.632 346.302,248.966 344.5,250.5C 343.833,252.5 343.167,254.5 342.5,256.5C 340.271,254.901 339.938,252.901 341.5,250.5C 339.997,249.948 338.331,249.948 336.5,250.5C 336.34,252.199 336.506,253.866 337,255.5C 338.972,256.305 340.472,257.639 341.5,259.5C 341.154,260.696 340.654,260.696 340,259.5C 339.114,263.816 340.281,267.483 343.5,270.5C 342.998,271.521 342.332,271.688 341.5,271C 339.959,269.421 338.792,267.587 338,265.5C 337.329,264.748 336.496,264.414 335.5,264.5C 336.086,262.16 337.086,259.993 338.5,258C 336.99,257.15 335.49,256.317 334,255.5C 328.899,262.273 323.399,268.773 317.5,275C 315.323,276.202 312.989,276.702 310.5,276.5C 310.069,270.972 310.736,265.639 312.5,260.5C 313.117,260.611 313.617,260.944 314,261.5C 315.289,255.383 316.956,249.383 319,243.5C 319.893,244.711 320.726,244.711 321.5,243.5C 320.123,240.423 320.29,237.423 322,234.5C 323.764,234.989 325.264,234.989 326.5,234.5C 327.75,234.577 328.583,235.244 329,236.5C 329.464,242.175 330.131,242.508 331,237.5C 332.973,236.36 334.807,235.027 336.5,233.5C 335.167,232.833 333.833,232.167 332.5,231.5C 339.341,229.358 346.341,227.691 353.5,226.5C 359.321,224.784 364.654,222.117 369.5,218.5C 373.015,219.095 376.348,218.428 379.5,216.5C 379.36,214.876 380.027,213.71 381.5,213C 384.5,212.667 387.5,212.333 390.5,212C 390.996,210.004 391.996,208.337 393.5,207C 400.212,205.855 406.879,204.522 413.5,203C 419.653,201.006 425.153,197.839 430,193.5C 433.332,193.75 436.832,193.75 440.5,193.5C 440.323,191.019 441.323,189.186 443.5,188C 446.437,187.9 449.104,187.067 451.5,185.5C 452.799,190.733 453.632,196.066 454,201.5C 454.169,194.144 454.669,186.811 455.5,179.5C 456.172,180.949 456.839,182.282 457.5,183.5 Z"/></g>
<g><path style="opacity:1" fill="#6099fd" d="M 291.5,209.5 C 289.47,215.918 287.47,222.251 285.5,228.5C 285.579,227.07 285.246,225.736 284.5,224.5C 287.048,222.781 286.715,221.448 283.5,220.5C 285.786,218.387 287.452,215.887 288.5,213C 287.126,209.59 286.459,209.757 286.5,213.5C 284.857,213.48 283.524,214.147 282.5,215.5C 281.969,212.901 281.802,210.235 282,207.5C 281.654,209.848 280.487,211.681 278.5,213C 275.591,214.705 272.758,216.539 270,218.5C 269.667,217.833 269.333,217.167 269,216.5C 267.294,217.308 266.461,218.641 266.5,220.5C 260.773,222.498 254.773,223.664 248.5,224C 247.958,226.255 246.791,228.088 245,229.5C 244.667,228.833 244.333,228.167 244,227.5C 242.202,229.837 240.035,230.503 237.5,229.5C 234.318,231.616 230.985,233.449 227.5,235C 224.833,235.333 222.167,235.667 219.5,236C 218.08,237.456 216.747,238.956 215.5,240.5C 213.411,239.197 211.744,239.697 210.5,242C 206.417,242.861 202.417,244.027 198.5,245.5C 196.418,246.366 195.085,247.866 194.5,250C 193.913,254.957 192.913,259.79 191.5,264.5C 187.944,258.537 184.944,252.203 182.5,245.5C 182.533,242.164 181.866,238.997 180.5,236C 182.698,233.827 185.031,231.827 187.5,230C 189.598,230.984 191.598,230.651 193.5,229C 196.013,227.381 198.346,225.548 200.5,223.5C 203.035,224.503 205.202,223.837 207,221.5C 207.333,222.167 207.667,222.833 208,223.5C 210.695,221.11 213.861,220.11 217.5,220.5C 217.281,219.325 217.614,218.325 218.5,217.5C 219.842,216.098 220.676,216.431 221,218.5C 224.675,215.828 228.342,213.161 232,210.5C 232.333,211.167 232.667,211.833 233,212.5C 238.441,210.617 243.941,208.284 249.5,205.5C 250.167,205.833 250.833,206.167 251.5,206.5C 254.82,203.506 258.487,201.006 262.5,199C 268.158,198.614 273.491,197.114 278.5,194.5C 282.766,190.619 287.766,188.286 293.5,187.5C 293.411,190.709 293.744,193.875 294.5,197C 292.778,200.997 291.778,205.164 291.5,209.5 Z"/></g>
<g><path style="opacity:0.557" fill="#6d8ad0" d="M 155.5,170.5 C 154.662,184.149 154.329,197.816 154.5,211.5C 153.834,206.01 153.501,200.343 153.5,194.5C 153.302,186.274 153.969,178.274 155.5,170.5 Z"/></g>
<g><path style="opacity:1" fill="#e5edfc" d="M 474.5,179.5 C 474.263,180.791 474.596,181.791 475.5,182.5C 475.593,193.85 475.259,205.183 474.5,216.5C 471.711,232.866 466.711,248.533 459.5,263.5C 458.167,259.187 456.833,254.854 455.5,250.5C 454.804,253.556 453.97,256.556 453,259.5C 452.333,260.833 451.667,260.833 451,259.5C 450.667,260.167 450.333,260.833 450,261.5C 448.586,260.587 447.086,260.587 445.5,261.5C 450.505,252.811 453.839,243.478 455.5,233.5C 458.685,225.599 460.352,217.266 460.5,208.5C 461.167,208.5 461.5,208.167 461.5,207.5C 461.892,198.181 463.059,188.847 465,179.5C 465.912,183.795 466.579,188.128 467,192.5C 468.239,186.944 468.906,181.278 469,175.5C 469.333,176.167 469.667,176.833 470,177.5C 469.781,182.485 469.781,187.485 470,192.5C 470.442,187.654 471.942,183.32 474.5,179.5 Z"/></g>
<g><path style="opacity:1" fill="#4173e7" d="M 480.5,176.5 C 481.812,188.84 481.812,201.173 480.5,213.5C 479.089,218.033 477.756,222.699 476.5,227.5C 475.914,227.291 475.414,226.957 475,226.5C 474.502,223.183 474.335,219.85 474.5,216.5C 475.259,205.183 475.593,193.85 475.5,182.5C 475.559,177.31 475.225,172.143 474.5,167C 474.565,164.409 475.065,161.909 476,159.5C 476.333,163.167 476.667,166.833 477,170.5C 477.333,169.833 477.667,169.167 478,168.5C 477.947,171.675 478.78,174.342 480.5,176.5 Z"/></g>
<g><path style="opacity:1" fill="#497ffa" d="M 460.5,208.5 C 460.352,217.266 458.685,225.599 455.5,233.5C 455.095,232.45 454.429,232.45 453.5,233.5C 452.833,232.167 452.167,230.833 451.5,229.5C 449.997,230.59 449.664,231.757 450.5,233C 448.623,233.576 446.789,233.409 445,232.5C 440.778,234.728 436.278,236.228 431.5,237C 431.943,238.518 431.276,239.685 429.5,240.5C 427.316,239.892 425.316,240.559 423.5,242.5C 422.833,242.167 422.167,241.833 421.5,241.5C 419.071,242.855 417.738,244.522 417.5,246.5C 416.784,245.689 415.95,245.022 415,244.5C 409.188,247.324 403.021,249.158 396.5,250C 398.167,250.333 399.833,250.667 401.5,251C 400.464,252.617 399.297,252.784 398,251.5C 396.253,252.33 394.587,253.33 393,254.5C 392.228,254.355 391.561,254.022 391,253.5C 388.281,254.677 386.781,256.343 386.5,258.5C 384.751,255.873 383.084,255.873 381.5,258.5C 378.914,259.48 376.247,259.813 373.5,259.5C 373.5,260.5 373.5,261.5 373.5,262.5C 371.097,262.393 369.264,263.393 368,265.5C 367.667,264.833 367.333,264.167 367,263.5C 365.202,265.837 363.035,266.503 360.5,265.5C 359.155,266.347 358.155,267.513 357.5,269C 355.5,269.333 353.5,269.667 351.5,270C 348.725,273.205 345.391,274.038 341.5,272.5C 340.256,274.437 338.756,276.104 337,277.5C 334.98,276.968 334.147,275.635 334.5,273.5C 330.807,273.186 328.473,274.852 327.5,278.5C 326.675,279.386 325.675,279.719 324.5,279.5C 327.934,274.284 331.601,269.284 335.5,264.5C 336.496,264.414 337.329,264.748 338,265.5C 338.792,267.587 339.959,269.421 341.5,271C 342.332,271.688 342.998,271.521 343.5,270.5C 340.281,267.483 339.114,263.816 340,259.5C 340.654,260.696 341.154,260.696 341.5,259.5C 340.472,257.639 338.972,256.305 337,255.5C 336.506,253.866 336.34,252.199 336.5,250.5C 338.331,249.948 339.997,249.948 341.5,250.5C 339.938,252.901 340.271,254.901 342.5,256.5C 343.167,254.5 343.833,252.5 344.5,250.5C 346.302,248.966 348.135,248.632 350,249.5C 354.903,245.436 360.403,242.436 366.5,240.5C 367.086,240.709 367.586,241.043 368,241.5C 369.816,239.559 371.816,238.892 374,239.5C 379.511,236.276 385.345,233.943 391.5,232.5C 391.5,231.5 391.5,230.5 391.5,229.5C 398.047,229.059 404.047,227.059 409.5,223.5C 410.192,224.025 410.692,224.692 411,225.5C 414.672,222.986 418.172,220.319 421.5,217.5C 422.192,218.025 422.692,218.692 423,219.5C 426.526,217.55 430.026,215.55 433.5,213.5C 434.167,213.833 434.833,214.167 435.5,214.5C 439.177,212.605 442.51,210.272 445.5,207.5C 448.035,208.503 450.202,207.837 452,205.5C 452.308,206.308 452.808,206.975 453.5,207.5C 454.396,204.856 455.229,202.19 456,199.5C 457.458,203.499 457.958,207.499 457.5,211.5C 458.167,210.167 458.833,208.833 459.5,207.5C 460.107,207.624 460.44,207.957 460.5,208.5 Z"/></g>
<g><path style="opacity:1" fill="#5a93fd" d="M 285.5,228.5 C 284.993,231.431 283.993,234.098 282.5,236.5C 282.389,235.883 282.056,235.383 281.5,235C 274.633,234.844 268.799,237.344 264,242.5C 263.667,241.833 263.333,241.167 263,240.5C 257.62,244.714 251.454,246.714 244.5,246.5C 244.5,247.5 244.5,248.5 244.5,249.5C 240.072,249.785 236.238,251.451 233,254.5C 232.667,253.833 232.333,253.167 232,252.5C 230.786,254.049 229.286,255.215 227.5,256C 220.473,258.398 213.473,260.898 206.5,263.5C 204.673,266.093 202.34,266.926 199.5,266C 197.219,267.482 197.219,269.149 199.5,271C 198.62,272.356 198.286,273.856 198.5,275.5C 198.167,275.5 197.833,275.5 197.5,275.5C 195.258,272.021 193.258,268.354 191.5,264.5C 192.913,259.79 193.913,254.957 194.5,250C 195.085,247.866 196.418,246.366 198.5,245.5C 202.417,244.027 206.417,242.861 210.5,242C 211.744,239.697 213.411,239.197 215.5,240.5C 216.747,238.956 218.08,237.456 219.5,236C 222.167,235.667 224.833,235.333 227.5,235C 230.985,233.449 234.318,231.616 237.5,229.5C 240.035,230.503 242.202,229.837 244,227.5C 244.333,228.167 244.667,228.833 245,229.5C 246.791,228.088 247.958,226.255 248.5,224C 254.773,223.664 260.773,222.498 266.5,220.5C 266.461,218.641 267.294,217.308 269,216.5C 269.333,217.167 269.667,217.833 270,218.5C 272.758,216.539 275.591,214.705 278.5,213C 280.487,211.681 281.654,209.848 282,207.5C 281.802,210.235 281.969,212.901 282.5,215.5C 283.524,214.147 284.857,213.48 286.5,213.5C 286.459,209.757 287.126,209.59 288.5,213C 287.452,215.887 285.786,218.387 283.5,220.5C 286.715,221.448 287.048,222.781 284.5,224.5C 285.246,225.736 285.579,227.07 285.5,228.5 Z"/></g>
<g><path style="opacity:1" fill="#88a6ea" d="M 160.5,212.5 C 161.972,216.919 162.638,221.586 162.5,226.5C 161.199,222.057 160.532,217.391 160.5,212.5 Z"/></g>
<g><path style="opacity:0.243" fill="#7590da" d="M 154.5,213.5 C 155.795,217.267 156.461,221.267 156.5,225.5C 155.011,221.764 154.344,217.764 154.5,213.5 Z"/></g>
<g><path style="opacity:1" fill="#6691ee" d="M 323.5,225.5 C 323.336,228.187 323.503,230.854 324,233.5C 325.461,232.117 326.294,232.451 326.5,234.5C 325.264,234.989 323.764,234.989 322,234.5C 320.29,237.423 320.123,240.423 321.5,243.5C 320.726,244.711 319.893,244.711 319,243.5C 316.956,249.383 315.289,255.383 314,261.5C 313.617,260.944 313.117,260.611 312.5,260.5C 315.943,248.652 319.609,236.985 323.5,225.5 Z"/></g>
<g><path style="opacity:0.867" fill="#7590db" d="M 157.5,232.5 C 158.693,232.97 159.36,233.97 159.5,235.5C 159.997,237.818 160.33,240.152 160.5,242.5C 158.899,239.45 157.899,236.116 157.5,232.5 Z"/></g>
<g><path style="opacity:1" fill="#558cfa" d="M 282.5,236.5 C 280.271,247.596 276.938,258.263 272.5,268.5C 270.28,266.41 268.78,263.743 268,260.5C 262.593,262.534 257.26,264.867 252,267.5C 249.663,267.101 247.163,267.101 244.5,267.5C 244.663,270.94 242.996,272.94 239.5,273.5C 238.914,273.291 238.414,272.957 238,272.5C 232.654,275.778 226.821,277.111 220.5,276.5C 220.5,277.5 220.5,278.5 220.5,279.5C 217.833,279.5 215.167,279.5 212.5,279.5C 212.649,280.552 212.483,281.552 212,282.5C 209.492,282.181 206.992,282.014 204.5,282C 205.167,283 205.833,284 206.5,285C 207.951,284.737 209.284,284.904 210.5,285.5C 210.291,286.086 209.957,286.586 209.5,287C 211.14,289.774 213.14,292.274 215.5,294.5C 216.478,294.023 217.311,293.357 218,292.5C 218.333,293.167 218.667,293.833 219,294.5C 221.139,293.231 223.305,293.231 225.5,294.5C 222.848,295.01 220.848,296.343 219.5,298.5C 221.531,300.31 223.198,302.31 224.5,304.5C 213.753,296.653 205.086,286.986 198.5,275.5C 198.286,273.856 198.62,272.356 199.5,271C 197.219,269.149 197.219,267.482 199.5,266C 202.34,266.926 204.673,266.093 206.5,263.5C 213.473,260.898 220.473,258.398 227.5,256C 229.286,255.215 230.786,254.049 232,252.5C 232.333,253.167 232.667,253.833 233,254.5C 236.238,251.451 240.072,249.785 244.5,249.5C 244.5,248.5 244.5,247.5 244.5,246.5C 251.454,246.714 257.62,244.714 263,240.5C 263.333,241.167 263.667,241.833 264,242.5C 268.799,237.344 274.633,234.844 281.5,235C 282.056,235.383 282.389,235.883 282.5,236.5 Z"/></g>
<g><path style="opacity:1" fill="#dde7fb" d="M 173.5,207.5 C 173.833,207.5 174.167,207.5 174.5,207.5C 174.073,213.114 174.74,218.447 176.5,223.5C 177.132,227.702 178.132,231.702 179.5,235.5C 180.13,239.048 181.13,242.381 182.5,245.5C 184.944,252.203 187.944,258.537 191.5,264.5C 193.258,268.354 195.258,272.021 197.5,275.5C 196.883,275.389 196.383,275.056 196,274.5C 196.979,276.279 196.646,277.945 195,279.5C 194.737,276.736 193.237,275.069 190.5,274.5C 187.628,268.345 186.462,268.345 187,274.5C 190.315,276.768 191.315,279.768 190,283.5C 190.928,285.335 192.094,285.668 193.5,284.5C 193.5,283.167 193.5,281.833 193.5,280.5C 198.171,284.8 197.504,287.8 191.5,289.5C 186.616,284.09 182.45,278.09 179,271.5C 176.075,264.652 172.908,257.985 169.5,251.5C 169.598,249.447 168.931,247.78 167.5,246.5C 165.83,239.819 164.163,233.153 162.5,226.5C 162.638,221.586 161.972,216.919 160.5,212.5C 160.5,210.833 160.5,209.167 160.5,207.5C 160.668,186.177 161.168,186.177 162,207.5C 162.14,210.043 162.806,212.377 164,214.5C 163.232,202.174 163.565,189.841 165,177.5C 166.385,176.449 167.385,175.116 168,173.5C 169.064,174.944 169.564,176.611 169.5,178.5C 168.862,181.503 168.695,184.503 169,187.5C 169.759,183.033 170.759,178.699 172,174.5C 172.17,185.674 172.67,196.674 173.5,207.5 Z"/></g>
<g><path style="opacity:1" fill="#3a72f2" d="M 167.5,246.5 C 168.931,247.78 169.598,249.447 169.5,251.5C 169.509,253.308 169.009,254.975 168,256.5C 167.804,254.714 166.971,253.381 165.5,252.5C 163.654,248.59 163.32,244.59 164.5,240.5C 164.964,242.975 165.964,244.975 167.5,246.5 Z"/></g>
<g><path style="opacity:1" fill="#4479f8" d="M 455.5,233.5 C 453.839,243.478 450.505,252.811 445.5,261.5C 445.068,262.71 444.401,263.71 443.5,264.5C 443.007,262.194 442.674,259.861 442.5,257.5C 444.685,253.986 446.351,250.152 447.5,246C 447.167,245.5 446.833,245 446.5,244.5C 445.59,246.655 444.423,248.655 443,250.5C 442.781,249.062 442.281,247.729 441.5,246.5C 432.19,248.883 423.19,251.883 414.5,255.5C 414.64,257.124 413.973,258.29 412.5,259C 402.127,261.053 392.294,264.553 383,269.5C 380.276,268.162 379.109,269.162 379.5,272.5C 376.813,272.336 374.146,272.503 371.5,273C 364.869,276.327 358.202,279.66 351.5,283C 344.106,284.137 337.272,286.637 331,290.5C 329.164,288.396 326.998,288.062 324.5,289.5C 325.89,291.203 327.39,291.87 329,291.5C 329.667,292.5 329.667,293.5 329,294.5C 323.625,293.471 318.458,294.305 313.5,297C 312.376,299.482 310.71,299.982 308.5,298.5C 307.335,299.491 306.168,300.491 305,301.5C 303.14,299.799 300.973,298.799 298.5,298.5C 301.385,297.617 304.052,296.284 306.5,294.5C 307.873,294.657 309.207,294.49 310.5,294C 313.87,290.458 317.87,287.958 322.5,286.5C 322.517,284.435 322.85,282.435 323.5,280.5C 323.5,279.833 323.833,279.5 324.5,279.5C 325.675,279.719 326.675,279.386 327.5,278.5C 328.473,274.852 330.807,273.186 334.5,273.5C 334.147,275.635 334.98,276.968 337,277.5C 338.756,276.104 340.256,274.437 341.5,272.5C 345.391,274.038 348.725,273.205 351.5,270C 353.5,269.667 355.5,269.333 357.5,269C 358.155,267.513 359.155,266.347 360.5,265.5C 363.035,266.503 365.202,265.837 367,263.5C 367.333,264.167 367.667,264.833 368,265.5C 369.264,263.393 371.097,262.393 373.5,262.5C 373.5,261.5 373.5,260.5 373.5,259.5C 376.247,259.813 378.914,259.48 381.5,258.5C 383.084,255.873 384.751,255.873 386.5,258.5C 386.781,256.343 388.281,254.677 391,253.5C 391.561,254.022 392.228,254.355 393,254.5C 394.587,253.33 396.253,252.33 398,251.5C 399.297,252.784 400.464,252.617 401.5,251C 399.833,250.667 398.167,250.333 396.5,250C 403.021,249.158 409.188,247.324 415,244.5C 415.95,245.022 416.784,245.689 417.5,246.5C 417.738,244.522 419.071,242.855 421.5,241.5C 422.167,241.833 422.833,242.167 423.5,242.5C 425.316,240.559 427.316,239.892 429.5,240.5C 431.276,239.685 431.943,238.518 431.5,237C 436.278,236.228 440.778,234.728 445,232.5C 446.789,233.409 448.623,233.576 450.5,233C 449.664,231.757 449.997,230.59 451.5,229.5C 452.167,230.833 452.833,232.167 453.5,233.5C 454.429,232.45 455.095,232.45 455.5,233.5 Z"/></g>
<g><path style="opacity:0.514" fill="#7391d2" d="M 475.5,238.5 C 475.277,242.162 474.277,245.495 472.5,248.5C 472.723,244.838 473.723,241.505 475.5,238.5 Z"/></g>
<g><path style="opacity:1" fill="#3f73f6" d="M 442.5,257.5 C 441.883,257.611 441.383,257.944 441,258.5C 440.667,257.167 440.333,255.833 440,254.5C 436.056,256.274 432.223,258.274 428.5,260.5C 424.555,261.491 420.555,261.824 416.5,261.5C 416.5,262.833 416.5,264.167 416.5,265.5C 411.515,265.324 407.349,266.991 404,270.5C 403.667,270.167 403.333,269.833 403,269.5C 383.173,278.386 363.006,286.386 342.5,293.5C 342.5,294.5 342.5,295.5 342.5,296.5C 339.813,296.336 337.146,296.503 334.5,297C 318.75,303.872 302.75,310.205 286.5,316C 280.273,319.281 273.94,322.281 267.5,325C 265.866,325.494 264.199,325.66 262.5,325.5C 263.263,324.732 264.263,324.232 265.5,324C 261.648,323.407 257.981,322.24 254.5,320.5C 262.692,316.586 271.025,313.086 279.5,310C 283.819,309.24 288.152,308.573 292.5,308C 293.337,306.989 293.67,305.822 293.5,304.5C 296.406,304.916 299.239,305.582 302,306.5C 303.167,306.167 304.333,305.833 305.5,305.5C 302.496,304.011 299.496,302.678 296.5,301.5C 297.692,300.434 297.359,299.601 295.5,299C 296.448,298.517 297.448,298.351 298.5,298.5C 300.973,298.799 303.14,299.799 305,301.5C 306.168,300.491 307.335,299.491 308.5,298.5C 310.71,299.982 312.376,299.482 313.5,297C 318.458,294.305 323.625,293.471 329,294.5C 329.667,293.5 329.667,292.5 329,291.5C 327.39,291.87 325.89,291.203 324.5,289.5C 326.998,288.062 329.164,288.396 331,290.5C 337.272,286.637 344.106,284.137 351.5,283C 358.202,279.66 364.869,276.327 371.5,273C 374.146,272.503 376.813,272.336 379.5,272.5C 379.109,269.162 380.276,268.162 383,269.5C 392.294,264.553 402.127,261.053 412.5,259C 413.973,258.29 414.64,257.124 414.5,255.5C 423.19,251.883 432.19,248.883 441.5,246.5C 442.281,247.729 442.781,249.062 443,250.5C 444.423,248.655 445.59,246.655 446.5,244.5C 446.833,245 447.167,245.5 447.5,246C 446.351,250.152 444.685,253.986 442.5,257.5 Z"/></g>
<g><path style="opacity:0.459" fill="#7290d1" d="M 160.5,244.5 C 162.536,246.206 163.536,248.539 163.5,251.5C 161.935,249.491 160.935,247.157 160.5,244.5 Z"/></g>
<g><path style="opacity:1" fill="#4776e6" d="M 480.5,213.5 C 479.964,222.178 478.298,230.512 475.5,238.5C 473.723,241.505 472.723,244.838 472.5,248.5C 458.359,289.641 432.025,320.308 393.5,340.5C 390.333,341.028 387.166,341.695 384,342.5C 382.5,342.333 381,342.167 379.5,342C 380.942,341.623 381.942,340.79 382.5,339.5C 407.852,327.535 429.019,310.202 446,287.5C 451.298,279.899 455.798,271.899 459.5,263.5C 466.711,248.533 471.711,232.866 474.5,216.5C 474.335,219.85 474.502,223.183 475,226.5C 475.414,226.957 475.914,227.291 476.5,227.5C 477.756,222.699 479.089,218.033 480.5,213.5 Z"/></g>
<g><path style="opacity:1" fill="#4f86fa" d="M 272.5,268.5 C 271.059,275.633 271.392,282.633 273.5,289.5C 269.598,291.095 268.598,289.928 270.5,286C 269.148,280.924 266.981,280.424 264,284.5C 263.439,283.978 262.772,283.645 262,283.5C 259.901,285.653 257.567,286.32 255,285.5C 253.684,288.047 251.851,288.713 249.5,287.5C 248.167,288.5 246.833,289.5 245.5,290.5C 244.833,290.167 244.167,289.833 243.5,289.5C 240.5,291.5 237.5,293.5 234.5,295.5C 232.952,292.049 230.952,291.716 228.5,294.5C 228.795,296.865 230.128,299.031 232.5,301C 231.513,303.321 229.846,304.987 227.5,306C 228.381,306.708 229.047,307.542 229.5,308.5C 227.251,307.92 225.585,306.587 224.5,304.5C 223.198,302.31 221.531,300.31 219.5,298.5C 220.848,296.343 222.848,295.01 225.5,294.5C 223.305,293.231 221.139,293.231 219,294.5C 218.667,293.833 218.333,293.167 218,292.5C 217.311,293.357 216.478,294.023 215.5,294.5C 213.14,292.274 211.14,289.774 209.5,287C 209.957,286.586 210.291,286.086 210.5,285.5C 209.284,284.904 207.951,284.737 206.5,285C 205.833,284 205.167,283 204.5,282C 206.992,282.014 209.492,282.181 212,282.5C 212.483,281.552 212.649,280.552 212.5,279.5C 215.167,279.5 217.833,279.5 220.5,279.5C 220.5,278.5 220.5,277.5 220.5,276.5C 226.821,277.111 232.654,275.778 238,272.5C 238.414,272.957 238.914,273.291 239.5,273.5C 242.996,272.94 244.663,270.94 244.5,267.5C 247.163,267.101 249.663,267.101 252,267.5C 257.26,264.867 262.593,262.534 268,260.5C 268.78,263.743 270.28,266.41 272.5,268.5 Z"/></g>
<g><path style="opacity:1" fill="#3865ee" d="M 440.5,269.5 C 434.507,280.48 426.841,290.147 417.5,298.5C 417.119,297.069 416.119,296.236 414.5,296C 415.551,294.615 416.884,293.615 418.5,293C 417.105,290.215 415.772,287.382 414.5,284.5C 410.528,285.089 406.861,286.423 403.5,288.5C 403.709,289.086 404.043,289.586 404.5,290C 400.833,290.333 397.167,290.667 393.5,291C 391.947,292.097 390.614,293.43 389.5,295C 381.277,297.696 373.111,300.529 365,303.5C 361.875,304.256 358.709,304.589 355.5,304.5C 355.5,305.833 355.5,307.167 355.5,308.5C 351.051,309.323 346.718,310.323 342.5,311.5C 342.5,312.5 342.5,313.5 342.5,314.5C 339.116,314.34 335.783,314.673 332.5,315.5C 329.971,317.529 327.304,319.362 324.5,321C 318.54,322.92 312.54,324.92 306.5,327C 305.167,327.667 305.167,328.333 306.5,329C 304.102,329.374 301.769,329.374 299.5,329C 302.161,329.795 304.495,331.129 306.5,333C 302.242,333.745 298.242,333.412 294.5,332C 294.043,332.414 293.709,332.914 293.5,333.5C 300.314,335.807 307.314,336.807 314.5,336.5C 320.82,336.59 327.153,336.923 333.5,337.5C 333.5,337.833 333.5,338.167 333.5,338.5C 318.671,340.271 304.004,339.605 289.5,336.5C 288.442,334.959 286.942,333.959 285,333.5C 281.589,333.015 278.256,332.348 275,331.5C 274.833,331.167 274.667,330.833 274.5,330.5C 277.504,329.987 279.838,328.487 281.5,326C 285.147,325.226 288.814,324.559 292.5,324C 297.324,321.445 301.99,318.612 306.5,315.5C 309.447,314.679 312.447,314.179 315.5,314C 319.709,310.063 324.709,308.063 330.5,308C 332.641,306.692 334.641,305.192 336.5,303.5C 342.348,302.455 348.015,300.955 353.5,299C 356.376,296.563 359.71,295.23 363.5,295C 364.167,294 364.833,293 365.5,292C 374.335,289.721 383.002,287.054 391.5,284C 398.037,279.947 405.037,276.947 412.5,275C 413.167,274.333 413.833,273.667 414.5,273C 418.643,272.838 422.477,271.671 426,269.5C 426.95,270.022 427.784,270.689 428.5,271.5C 429.731,270.349 429.731,269.183 428.5,268C 432.311,266.376 436.144,264.876 440,263.5C 440.495,265.473 440.662,267.473 440.5,269.5 Z"/></g>
<g><path style="opacity:1" fill="#3d6df3" d="M 442.5,257.5 C 442.674,259.861 443.007,262.194 443.5,264.5C 442.737,266.368 441.737,268.035 440.5,269.5C 440.662,267.473 440.495,265.473 440,263.5C 436.144,264.876 432.311,266.376 428.5,268C 429.731,269.183 429.731,270.349 428.5,271.5C 427.784,270.689 426.95,270.022 426,269.5C 422.477,271.671 418.643,272.838 414.5,273C 413.833,273.667 413.167,274.333 412.5,275C 405.037,276.947 398.037,279.947 391.5,284C 383.002,287.054 374.335,289.721 365.5,292C 364.833,293 364.167,294 363.5,295C 359.71,295.23 356.376,296.563 353.5,299C 348.015,300.955 342.348,302.455 336.5,303.5C 334.641,305.192 332.641,306.692 330.5,308C 324.709,308.063 319.709,310.063 315.5,314C 312.447,314.179 309.447,314.679 306.5,315.5C 301.99,318.612 297.324,321.445 292.5,324C 288.814,324.559 285.147,325.226 281.5,326C 279.838,328.487 277.504,329.987 274.5,330.5C 274.667,330.833 274.833,331.167 275,331.5C 278.256,332.348 281.589,333.015 285,333.5C 286.942,333.959 288.442,334.959 289.5,336.5C 284.108,335.648 278.775,334.482 273.5,333C 271.934,332.392 270.6,331.558 269.5,330.5C 269.082,329.778 268.416,329.278 267.5,329C 269.158,328.275 269.658,327.108 269,325.5C 266.782,327.619 264.282,327.952 261.5,326.5C 261.624,325.893 261.957,325.56 262.5,325.5C 264.199,325.66 265.866,325.494 267.5,325C 273.94,322.281 280.273,319.281 286.5,316C 302.75,310.205 318.75,303.872 334.5,297C 337.146,296.503 339.813,296.336 342.5,296.5C 342.5,295.5 342.5,294.5 342.5,293.5C 363.006,286.386 383.173,278.386 403,269.5C 403.333,269.833 403.667,270.167 404,270.5C 407.349,266.991 411.515,265.324 416.5,265.5C 416.5,264.167 416.5,262.833 416.5,261.5C 420.555,261.824 424.555,261.491 428.5,260.5C 432.223,258.274 436.056,256.274 440,254.5C 440.333,255.833 440.667,257.167 441,258.5C 441.383,257.944 441.883,257.611 442.5,257.5 Z"/></g>
<g><path style="opacity:0.776" fill="#6b8acf" d="M 179.5,284.5 C 181.531,285.539 182.864,287.205 183.5,289.5C 181.457,288.421 180.124,286.754 179.5,284.5 Z"/></g>
<g><path style="opacity:1" fill="#3460ec" d="M 417.5,298.5 C 416.5,300.167 415.167,301.5 413.5,302.5C 413.5,301.5 413.5,300.5 413.5,299.5C 410.028,299.874 407.028,298.874 404.5,296.5C 396.931,300.579 388.931,303.245 380.5,304.5C 379.738,305.628 379.071,306.795 378.5,308C 370.78,310.206 363.114,312.373 355.5,314.5C 354.687,315.814 353.687,316.981 352.5,318C 342.444,322.905 331.777,326.239 320.5,328C 318.968,328.7 317.968,329.866 317.5,331.5C 319.772,332.485 322.105,333.319 324.5,334C 320.5,334.333 316.5,334.667 312.5,335C 313.416,335.278 314.082,335.778 314.5,336.5C 307.314,336.807 300.314,335.807 293.5,333.5C 293.709,332.914 294.043,332.414 294.5,332C 298.242,333.412 302.242,333.745 306.5,333C 304.495,331.129 302.161,329.795 299.5,329C 301.769,329.374 304.102,329.374 306.5,329C 305.167,328.333 305.167,327.667 306.5,327C 312.54,324.92 318.54,322.92 324.5,321C 327.304,319.362 329.971,317.529 332.5,315.5C 335.783,314.673 339.116,314.34 342.5,314.5C 342.5,313.5 342.5,312.5 342.5,311.5C 346.718,310.323 351.051,309.323 355.5,308.5C 355.5,307.167 355.5,305.833 355.5,304.5C 358.709,304.589 361.875,304.256 365,303.5C 373.111,300.529 381.277,297.696 389.5,295C 390.614,293.43 391.947,292.097 393.5,291C 397.167,290.667 400.833,290.333 404.5,290C 404.043,289.586 403.709,289.086 403.5,288.5C 406.861,286.423 410.528,285.089 414.5,284.5C 415.772,287.382 417.105,290.215 418.5,293C 416.884,293.615 415.551,294.615 414.5,296C 416.119,296.236 417.119,297.069 417.5,298.5 Z"/></g>
<g><path style="opacity:1" fill="#497ff9" d="M 273.5,289.5 C 276.899,293.536 281.233,296.036 286.5,297C 293.393,297.419 300.059,296.586 306.5,294.5C 304.052,296.284 301.385,297.617 298.5,298.5C 297.448,298.351 296.448,298.517 295.5,299C 297.359,299.601 297.692,300.434 296.5,301.5C 293.043,302.528 289.543,302.528 286,301.5C 283.443,301.957 280.943,302.624 278.5,303.5C 276.182,303.003 273.848,302.67 271.5,302.5C 271.762,303.978 271.429,305.311 270.5,306.5C 269.549,305.674 268.549,305.508 267.5,306C 265.849,307.943 263.849,309.443 261.5,310.5C 260.614,311.325 260.281,312.325 260.5,313.5C 259.178,313.33 258.011,313.663 257,314.5C 256.667,313.5 256.333,312.5 256,311.5C 252.138,313.549 248.305,315.716 244.5,318C 245.056,318.383 245.389,318.883 245.5,319.5C 239.463,316.818 234.129,313.151 229.5,308.5C 229.047,307.542 228.381,306.708 227.5,306C 229.846,304.987 231.513,303.321 232.5,301C 230.128,299.031 228.795,296.865 228.5,294.5C 230.952,291.716 232.952,292.049 234.5,295.5C 237.5,293.5 240.5,291.5 243.5,289.5C 244.167,289.833 244.833,290.167 245.5,290.5C 246.833,289.5 248.167,288.5 249.5,287.5C 251.851,288.713 253.684,288.047 255,285.5C 257.567,286.32 259.901,285.653 262,283.5C 262.772,283.645 263.439,283.978 264,284.5C 266.981,280.424 269.148,280.924 270.5,286C 268.598,289.928 269.598,291.095 273.5,289.5 Z"/></g>
<g><path style="opacity:1" fill="#5682ea" d="M 323.5,280.5 C 322.85,282.435 322.517,284.435 322.5,286.5C 317.87,287.958 313.87,290.458 310.5,294C 309.207,294.49 307.873,294.657 306.5,294.5C 312.726,290.616 318.393,285.949 323.5,280.5 Z"/></g>
<g><path style="opacity:1" fill="#577dd7" d="M 183.5,290.5 C 184.833,290.5 186.167,290.5 187.5,290.5C 188.082,294.113 189.915,297.113 193,299.5C 193.483,300.448 193.649,301.448 193.5,302.5C 189.82,298.817 186.486,294.817 183.5,290.5 Z"/></g>
<g><path style="opacity:1" fill="#3058e7" d="M 413.5,302.5 C 394.132,319.352 371.799,330.685 346.5,336.5C 342.19,337.08 337.857,337.414 333.5,337.5C 327.153,336.923 320.82,336.59 314.5,336.5C 314.082,335.778 313.416,335.278 312.5,335C 316.5,334.667 320.5,334.333 324.5,334C 322.105,333.319 319.772,332.485 317.5,331.5C 317.968,329.866 318.968,328.7 320.5,328C 331.777,326.239 342.444,322.905 352.5,318C 353.687,316.981 354.687,315.814 355.5,314.5C 363.114,312.373 370.78,310.206 378.5,308C 379.071,306.795 379.738,305.628 380.5,304.5C 388.931,303.245 396.931,300.579 404.5,296.5C 407.028,298.874 410.028,299.874 413.5,299.5C 413.5,300.5 413.5,301.5 413.5,302.5 Z"/></g>
<g><path style="opacity:1" fill="#e6eefb" d="M 197.5,275.5 C 197.833,275.5 198.167,275.5 198.5,275.5C 205.086,286.986 213.753,296.653 224.5,304.5C 225.585,306.587 227.251,307.92 229.5,308.5C 234.129,313.151 239.463,316.818 245.5,319.5C 245.5,319.833 245.5,320.167 245.5,320.5C 242.282,320.651 241.949,321.484 244.5,323C 242.75,324.319 240.75,324.819 238.5,324.5C 238.67,323.178 238.337,322.011 237.5,321C 234.449,320.143 231.783,320.81 229.5,323C 231.439,324.432 232.772,326.265 233.5,328.5C 219.372,319.882 206.872,309.215 196,296.5C 194.277,294.283 192.777,291.95 191.5,289.5C 197.504,287.8 198.171,284.8 193.5,280.5C 193.5,281.833 193.5,283.167 193.5,284.5C 192.094,285.668 190.928,285.335 190,283.5C 191.315,279.768 190.315,276.768 187,274.5C 186.462,268.345 187.628,268.345 190.5,274.5C 193.237,275.069 194.737,276.736 195,279.5C 196.646,277.945 196.979,276.279 196,274.5C 196.383,275.056 196.883,275.389 197.5,275.5 Z"/></g>
<g><path style="opacity:1" fill="#4478f6" d="M 296.5,301.5 C 299.496,302.678 302.496,304.011 305.5,305.5C 304.333,305.833 303.167,306.167 302,306.5C 299.239,305.582 296.406,304.916 293.5,304.5C 293.67,305.822 293.337,306.989 292.5,308C 288.152,308.573 283.819,309.24 279.5,310C 271.025,313.086 262.692,316.586 254.5,320.5C 257.981,322.24 261.648,323.407 265.5,324C 264.263,324.232 263.263,324.732 262.5,325.5C 261.957,325.56 261.624,325.893 261.5,326.5C 264.282,327.952 266.782,327.619 269,325.5C 269.658,327.108 269.158,328.275 267.5,329C 268.416,329.278 269.082,329.778 269.5,330.5C 261.037,328.268 253.037,324.935 245.5,320.5C 245.5,320.167 245.5,319.833 245.5,319.5C 245.389,318.883 245.056,318.383 244.5,318C 248.305,315.716 252.138,313.549 256,311.5C 256.333,312.5 256.667,313.5 257,314.5C 258.011,313.663 259.178,313.33 260.5,313.5C 260.281,312.325 260.614,311.325 261.5,310.5C 263.849,309.443 265.849,307.943 267.5,306C 268.549,305.508 269.549,305.674 270.5,306.5C 271.429,305.311 271.762,303.978 271.5,302.5C 273.848,302.67 276.182,303.003 278.5,303.5C 280.943,302.624 283.443,301.957 286,301.5C 289.543,302.528 293.043,302.528 296.5,301.5 Z"/></g>
<g><path style="opacity:0.565" fill="#7590d2" d="M 196.5,306.5 C 198.833,306.833 200.167,308.167 200.5,310.5C 198.833,309.5 197.5,308.167 196.5,306.5 Z"/></g>
<g><path style="opacity:0.694" fill="#708fd2" d="M 200.5,310.5 C 203.5,311.5 205.5,313.5 206.5,316.5C 204.167,314.833 202.167,312.833 200.5,310.5 Z"/></g>
<g><path style="opacity:1" fill="#4375e8" d="M 163.5,139.5 C 163.18,142.898 163.513,146.232 164.5,149.5C 165.466,147.604 165.799,145.604 165.5,143.5C 166.5,143.5 167.5,143.5 168.5,143.5C 161.077,164.312 158.411,185.645 160.5,207.5C 160.5,209.167 160.5,210.833 160.5,212.5C 160.532,217.391 161.199,222.057 162.5,226.5C 164.163,233.153 165.83,239.819 167.5,246.5C 165.964,244.975 164.964,242.975 164.5,240.5C 163.32,244.59 163.654,248.59 165.5,252.5C 166.971,253.381 167.804,254.714 168,256.5C 169.009,254.975 169.509,253.308 169.5,251.5C 172.908,257.985 176.075,264.652 179,271.5C 182.45,278.09 186.616,284.09 191.5,289.5C 192.777,291.95 194.277,294.283 196,296.5C 206.872,309.215 219.372,319.882 233.5,328.5C 235.927,330.558 238.593,332.391 241.5,334C 250.559,339.035 259.892,343.201 269.5,346.5C 266.518,346.037 263.518,345.704 260.5,345.5C 260.5,346.5 260.5,347.5 260.5,348.5C 262.38,348.229 263.713,348.896 264.5,350.5C 242.661,343.254 223.327,331.921 206.5,316.5C 205.5,313.5 203.5,311.5 200.5,310.5C 200.167,308.167 198.833,306.833 196.5,306.5C 195.5,305.167 194.5,303.833 193.5,302.5C 193.649,301.448 193.483,300.448 193,299.5C 189.915,297.113 188.082,294.113 187.5,290.5C 186.167,290.5 184.833,290.5 183.5,290.5C 183.5,290.167 183.5,289.833 183.5,289.5C 182.864,287.205 181.531,285.539 179.5,284.5C 172.305,274.443 166.972,263.443 163.5,251.5C 163.536,248.539 162.536,246.206 160.5,244.5C 160.5,243.833 160.5,243.167 160.5,242.5C 160.33,240.152 159.997,237.818 159.5,235.5C 159.36,233.97 158.693,232.97 157.5,232.5C 156.781,230.236 156.448,227.903 156.5,225.5C 156.461,221.267 155.795,217.267 154.5,213.5C 154.5,212.833 154.5,212.167 154.5,211.5C 154.329,197.816 154.662,184.149 155.5,170.5C 155.5,169.833 155.5,169.167 155.5,168.5C 157.096,166.168 158.262,163.501 159,160.5C 159.497,157.854 159.664,155.187 159.5,152.5C 160.057,147.835 161.39,143.502 163.5,139.5 Z"/></g>
<g><path style="opacity:1" fill="#edf3fc" d="M 459.5,263.5 C 455.798,271.899 451.298,279.899 446,287.5C 429.019,310.202 407.852,327.535 382.5,339.5C 371.508,343.512 360.508,347.179 349.5,350.5C 349.167,350.5 348.833,350.5 348.5,350.5C 340.656,351.18 332.989,352.18 325.5,353.5C 317.833,353.5 310.167,353.5 302.5,353.5C 294.277,351.909 285.944,350.242 277.5,348.5C 274.888,347.629 272.221,346.963 269.5,346.5C 259.892,343.201 250.559,339.035 241.5,334C 238.593,332.391 235.927,330.558 233.5,328.5C 232.772,326.265 231.439,324.432 229.5,323C 231.783,320.81 234.449,320.143 237.5,321C 238.337,322.011 238.67,323.178 238.5,324.5C 240.75,324.819 242.75,324.319 244.5,323C 241.949,321.484 242.282,320.651 245.5,320.5C 253.037,324.935 261.037,328.268 269.5,330.5C 270.6,331.558 271.934,332.392 273.5,333C 278.775,334.482 284.108,335.648 289.5,336.5C 304.004,339.605 318.671,340.271 333.5,338.5C 336.85,338.665 340.183,338.498 343.5,338C 344.737,337.768 345.737,337.268 346.5,336.5C 371.799,330.685 394.132,319.352 413.5,302.5C 415.167,301.5 416.5,300.167 417.5,298.5C 426.841,290.147 434.507,280.48 440.5,269.5C 441.737,268.035 442.737,266.368 443.5,264.5C 444.401,263.71 445.068,262.71 445.5,261.5C 447.086,260.587 448.586,260.587 450,261.5C 450.333,260.833 450.667,260.167 451,259.5C 451.667,260.833 452.333,260.833 453,259.5C 453.97,256.556 454.804,253.556 455.5,250.5C 456.833,254.854 458.167,259.187 459.5,263.5 Z"/></g>
<g><path style="opacity:1" fill="#b7c6ef" d="M 346.5,336.5 C 345.737,337.268 344.737,337.768 343.5,338C 340.183,338.498 336.85,338.665 333.5,338.5C 333.5,338.167 333.5,337.833 333.5,337.5C 337.857,337.414 342.19,337.08 346.5,336.5 Z"/></g>
<g><path style="opacity:1" fill="#4174eb" d="M 382.5,345.5 C 379.912,347.592 376.912,348.925 373.5,349.5C 351.871,353.708 351.371,352.042 372,344.5C 373,344.833 374,345.167 375,345.5C 376.468,344.372 378.135,343.706 380,343.5C 381.376,343.684 382.209,344.351 382.5,345.5 Z"/></g>
<g><path style="opacity:1" fill="#3a72ee" d="M 269.5,346.5 C 272.221,346.963 274.888,347.629 277.5,348.5C 278.244,350.453 279.744,351.453 282,351.5C 286.82,352.12 291.653,352.62 296.5,353C 290.545,354.072 284.545,354.572 278.5,354.5C 274.498,352.39 270.165,351.057 265.5,350.5C 265.167,350.5 264.833,350.5 264.5,350.5C 263.713,348.896 262.38,348.229 260.5,348.5C 260.5,347.5 260.5,346.5 260.5,345.5C 263.518,345.704 266.518,346.037 269.5,346.5 Z"/></g>
<g><path style="opacity:1" fill="#4e7ae2" d="M 382.5,339.5 C 381.942,340.79 380.942,341.623 379.5,342C 381,342.167 382.5,342.333 384,342.5C 387.166,341.695 390.333,341.028 393.5,340.5C 390.26,342.951 386.593,344.618 382.5,345.5C 382.209,344.351 381.376,343.684 380,343.5C 378.135,343.706 376.468,344.372 375,345.5C 374,345.167 373,344.833 372,344.5C 351.371,352.042 351.871,353.708 373.5,349.5C 367.811,351.947 361.811,353.614 355.5,354.5C 354.554,351.687 352.554,350.354 349.5,350.5C 360.508,347.179 371.508,343.512 382.5,339.5 Z"/></g>
<g><path style="opacity:0.816" fill="#5d82d5" d="M 265.5,350.5 C 270.165,351.057 274.498,352.39 278.5,354.5C 273.835,353.943 269.502,352.61 265.5,350.5 Z"/></g>
<g><path style="opacity:1" fill="#4d79e1" d="M 277.5,348.5 C 285.944,350.242 294.277,351.909 302.5,353.5C 301.127,353.343 299.793,353.51 298.5,354C 299.458,355.147 299.125,356.147 297.5,357C 308.143,358.043 318.809,358.543 329.5,358.5C 312.272,360.411 295.272,359.078 278.5,354.5C 284.545,354.572 290.545,354.072 296.5,353C 291.653,352.62 286.82,352.12 282,351.5C 279.744,351.453 278.244,350.453 277.5,348.5 Z"/></g>
<g><path style="opacity:1" fill="#557de0" d="M 348.5,350.5 C 345.132,352.059 341.465,352.892 337.5,353C 338.706,354.018 338.373,354.518 336.5,354.5C 332.882,353.654 329.215,353.32 325.5,353.5C 332.989,352.18 340.656,351.18 348.5,350.5 Z"/></g>
<g><path style="opacity:1" fill="#3a72ec" d="M 348.5,350.5 C 348.833,350.5 349.167,350.5 349.5,350.5C 352.554,350.354 354.554,351.687 355.5,354.5C 348.85,355.11 342.184,355.61 335.5,356C 333.825,356.985 332.158,357.819 330.5,358.5C 330.167,358.5 329.833,358.5 329.5,358.5C 318.809,358.543 308.143,358.043 297.5,357C 299.125,356.147 299.458,355.147 298.5,354C 299.793,353.51 301.127,353.343 302.5,353.5C 310.167,353.5 317.833,353.5 325.5,353.5C 329.215,353.32 332.882,353.654 336.5,354.5C 338.373,354.518 338.706,354.018 337.5,353C 341.465,352.892 345.132,352.059 348.5,350.5 Z"/></g>
<g><path style="opacity:1" fill="#567add" d="M 355.5,354.5 C 347.493,357.097 339.159,358.43 330.5,358.5C 332.158,357.819 333.825,356.985 335.5,356C 342.184,355.61 348.85,355.11 355.5,354.5 Z"/></g>
</svg>
